%TF.GenerationSoftware,KiCad,Pcbnew,5.1.9-73d0e3b20d~88~ubuntu20.04.1*%
%TF.CreationDate,2021-02-23T00:08:53-07:00*%
%TF.ProjectId,tow,746f772e-6b69-4636-9164-5f7063625858,rev?*%
%TF.SameCoordinates,Original*%
%TF.FileFunction,Legend,Top*%
%TF.FilePolarity,Positive*%
%FSLAX46Y46*%
G04 Gerber Fmt 4.6, Leading zero omitted, Abs format (unit mm)*
G04 Created by KiCad (PCBNEW 5.1.9-73d0e3b20d~88~ubuntu20.04.1) date 2021-02-23 00:08:53*
%MOMM*%
%LPD*%
G01*
G04 APERTURE LIST*
%ADD10C,0.150000*%
%TA.AperFunction,Profile*%
%ADD11C,0.050000*%
%TD*%
%ADD12C,0.120000*%
%ADD13C,0.203200*%
%ADD14C,0.254000*%
%ADD15C,0.127000*%
%ADD16C,0.152400*%
G04 APERTURE END LIST*
D10*
X79439047Y-85987380D02*
X79439047Y-84987380D01*
X79677142Y-84987380D01*
X79820000Y-85035000D01*
X79915238Y-85130238D01*
X79962857Y-85225476D01*
X80010476Y-85415952D01*
X80010476Y-85558809D01*
X79962857Y-85749285D01*
X79915238Y-85844523D01*
X79820000Y-85939761D01*
X79677142Y-85987380D01*
X79439047Y-85987380D01*
X80820000Y-85939761D02*
X80724761Y-85987380D01*
X80534285Y-85987380D01*
X80439047Y-85939761D01*
X80391428Y-85844523D01*
X80391428Y-85463571D01*
X80439047Y-85368333D01*
X80534285Y-85320714D01*
X80724761Y-85320714D01*
X80820000Y-85368333D01*
X80867619Y-85463571D01*
X80867619Y-85558809D01*
X80391428Y-85654047D01*
X81248571Y-85939761D02*
X81343809Y-85987380D01*
X81534285Y-85987380D01*
X81629523Y-85939761D01*
X81677142Y-85844523D01*
X81677142Y-85796904D01*
X81629523Y-85701666D01*
X81534285Y-85654047D01*
X81391428Y-85654047D01*
X81296190Y-85606428D01*
X81248571Y-85511190D01*
X81248571Y-85463571D01*
X81296190Y-85368333D01*
X81391428Y-85320714D01*
X81534285Y-85320714D01*
X81629523Y-85368333D01*
X82105714Y-85987380D02*
X82105714Y-85320714D01*
X82105714Y-84987380D02*
X82058095Y-85035000D01*
X82105714Y-85082619D01*
X82153333Y-85035000D01*
X82105714Y-84987380D01*
X82105714Y-85082619D01*
X83010476Y-85320714D02*
X83010476Y-86130238D01*
X82962857Y-86225476D01*
X82915238Y-86273095D01*
X82820000Y-86320714D01*
X82677142Y-86320714D01*
X82581904Y-86273095D01*
X83010476Y-85939761D02*
X82915238Y-85987380D01*
X82724761Y-85987380D01*
X82629523Y-85939761D01*
X82581904Y-85892142D01*
X82534285Y-85796904D01*
X82534285Y-85511190D01*
X82581904Y-85415952D01*
X82629523Y-85368333D01*
X82724761Y-85320714D01*
X82915238Y-85320714D01*
X83010476Y-85368333D01*
X83486666Y-85320714D02*
X83486666Y-85987380D01*
X83486666Y-85415952D02*
X83534285Y-85368333D01*
X83629523Y-85320714D01*
X83772380Y-85320714D01*
X83867619Y-85368333D01*
X83915238Y-85463571D01*
X83915238Y-85987380D01*
X84772380Y-85939761D02*
X84677142Y-85987380D01*
X84486666Y-85987380D01*
X84391428Y-85939761D01*
X84343809Y-85844523D01*
X84343809Y-85463571D01*
X84391428Y-85368333D01*
X84486666Y-85320714D01*
X84677142Y-85320714D01*
X84772380Y-85368333D01*
X84820000Y-85463571D01*
X84820000Y-85558809D01*
X84343809Y-85654047D01*
X85677142Y-85987380D02*
X85677142Y-84987380D01*
X85677142Y-85939761D02*
X85581904Y-85987380D01*
X85391428Y-85987380D01*
X85296190Y-85939761D01*
X85248571Y-85892142D01*
X85200952Y-85796904D01*
X85200952Y-85511190D01*
X85248571Y-85415952D01*
X85296190Y-85368333D01*
X85391428Y-85320714D01*
X85581904Y-85320714D01*
X85677142Y-85368333D01*
X87248571Y-85463571D02*
X87391428Y-85511190D01*
X87439047Y-85558809D01*
X87486666Y-85654047D01*
X87486666Y-85796904D01*
X87439047Y-85892142D01*
X87391428Y-85939761D01*
X87296190Y-85987380D01*
X86915238Y-85987380D01*
X86915238Y-84987380D01*
X87248571Y-84987380D01*
X87343809Y-85035000D01*
X87391428Y-85082619D01*
X87439047Y-85177857D01*
X87439047Y-85273095D01*
X87391428Y-85368333D01*
X87343809Y-85415952D01*
X87248571Y-85463571D01*
X86915238Y-85463571D01*
X87820000Y-85320714D02*
X88058095Y-85987380D01*
X88296190Y-85320714D02*
X88058095Y-85987380D01*
X87962857Y-86225476D01*
X87915238Y-86273095D01*
X87820000Y-86320714D01*
X76367619Y-87113571D02*
X76510476Y-87161190D01*
X76558095Y-87208809D01*
X76605714Y-87304047D01*
X76605714Y-87446904D01*
X76558095Y-87542142D01*
X76510476Y-87589761D01*
X76415238Y-87637380D01*
X76034285Y-87637380D01*
X76034285Y-86637380D01*
X76367619Y-86637380D01*
X76462857Y-86685000D01*
X76510476Y-86732619D01*
X76558095Y-86827857D01*
X76558095Y-86923095D01*
X76510476Y-87018333D01*
X76462857Y-87065952D01*
X76367619Y-87113571D01*
X76034285Y-87113571D01*
X77415238Y-87589761D02*
X77320000Y-87637380D01*
X77129523Y-87637380D01*
X77034285Y-87589761D01*
X76986666Y-87494523D01*
X76986666Y-87113571D01*
X77034285Y-87018333D01*
X77129523Y-86970714D01*
X77320000Y-86970714D01*
X77415238Y-87018333D01*
X77462857Y-87113571D01*
X77462857Y-87208809D01*
X76986666Y-87304047D01*
X78034285Y-87637380D02*
X77939047Y-87589761D01*
X77891428Y-87494523D01*
X77891428Y-86637380D01*
X78558095Y-87637380D02*
X78462857Y-87589761D01*
X78415238Y-87494523D01*
X78415238Y-86637380D01*
X79367619Y-87637380D02*
X79367619Y-87113571D01*
X79320000Y-87018333D01*
X79224761Y-86970714D01*
X79034285Y-86970714D01*
X78939047Y-87018333D01*
X79367619Y-87589761D02*
X79272380Y-87637380D01*
X79034285Y-87637380D01*
X78939047Y-87589761D01*
X78891428Y-87494523D01*
X78891428Y-87399285D01*
X78939047Y-87304047D01*
X79034285Y-87256428D01*
X79272380Y-87256428D01*
X79367619Y-87208809D01*
X79843809Y-86970714D02*
X79843809Y-87637380D01*
X79843809Y-87065952D02*
X79891428Y-87018333D01*
X79986666Y-86970714D01*
X80129523Y-86970714D01*
X80224761Y-87018333D01*
X80272380Y-87113571D01*
X80272380Y-87637380D01*
X80748571Y-86970714D02*
X80748571Y-87637380D01*
X80748571Y-87065952D02*
X80796190Y-87018333D01*
X80891428Y-86970714D01*
X81034285Y-86970714D01*
X81129523Y-87018333D01*
X81177142Y-87113571D01*
X81177142Y-87637380D01*
X82081904Y-87637380D02*
X82081904Y-87113571D01*
X82034285Y-87018333D01*
X81939047Y-86970714D01*
X81748571Y-86970714D01*
X81653333Y-87018333D01*
X82081904Y-87589761D02*
X81986666Y-87637380D01*
X81748571Y-87637380D01*
X81653333Y-87589761D01*
X81605714Y-87494523D01*
X81605714Y-87399285D01*
X81653333Y-87304047D01*
X81748571Y-87256428D01*
X81986666Y-87256428D01*
X82081904Y-87208809D01*
X84129523Y-87637380D02*
X84081904Y-87637380D01*
X83986666Y-87589761D01*
X83843809Y-87446904D01*
X83605714Y-87161190D01*
X83510476Y-87018333D01*
X83462857Y-86875476D01*
X83462857Y-86780238D01*
X83510476Y-86685000D01*
X83605714Y-86637380D01*
X83653333Y-86637380D01*
X83748571Y-86685000D01*
X83796190Y-86780238D01*
X83796190Y-86827857D01*
X83748571Y-86923095D01*
X83700952Y-86970714D01*
X83415238Y-87161190D01*
X83367619Y-87208809D01*
X83320000Y-87304047D01*
X83320000Y-87446904D01*
X83367619Y-87542142D01*
X83415238Y-87589761D01*
X83510476Y-87637380D01*
X83653333Y-87637380D01*
X83748571Y-87589761D01*
X83796190Y-87542142D01*
X83939047Y-87351666D01*
X83986666Y-87208809D01*
X83986666Y-87113571D01*
X85320000Y-87637380D02*
X85320000Y-86637380D01*
X86224761Y-87637380D02*
X86224761Y-87113571D01*
X86177142Y-87018333D01*
X86081904Y-86970714D01*
X85891428Y-86970714D01*
X85796190Y-87018333D01*
X86224761Y-87589761D02*
X86129523Y-87637380D01*
X85891428Y-87637380D01*
X85796190Y-87589761D01*
X85748571Y-87494523D01*
X85748571Y-87399285D01*
X85796190Y-87304047D01*
X85891428Y-87256428D01*
X86129523Y-87256428D01*
X86224761Y-87208809D01*
X86700952Y-86970714D02*
X86700952Y-87637380D01*
X86700952Y-87065952D02*
X86748571Y-87018333D01*
X86843809Y-86970714D01*
X86986666Y-86970714D01*
X87081904Y-87018333D01*
X87129523Y-87113571D01*
X87129523Y-87637380D01*
X88843809Y-87637380D02*
X88367619Y-87637380D01*
X88367619Y-86637380D01*
X89605714Y-87637380D02*
X89605714Y-87113571D01*
X89558095Y-87018333D01*
X89462857Y-86970714D01*
X89272380Y-86970714D01*
X89177142Y-87018333D01*
X89605714Y-87589761D02*
X89510476Y-87637380D01*
X89272380Y-87637380D01*
X89177142Y-87589761D01*
X89129523Y-87494523D01*
X89129523Y-87399285D01*
X89177142Y-87304047D01*
X89272380Y-87256428D01*
X89510476Y-87256428D01*
X89605714Y-87208809D01*
X90081904Y-87637380D02*
X90081904Y-86970714D01*
X90081904Y-86637380D02*
X90034285Y-86685000D01*
X90081904Y-86732619D01*
X90129523Y-86685000D01*
X90081904Y-86637380D01*
X90081904Y-86732619D01*
X90558095Y-87637380D02*
X90558095Y-86970714D01*
X90558095Y-87161190D02*
X90605714Y-87065952D01*
X90653333Y-87018333D01*
X90748571Y-86970714D01*
X90843809Y-86970714D01*
X91605714Y-87637380D02*
X91605714Y-86637380D01*
X91605714Y-87589761D02*
X91510476Y-87637380D01*
X91320000Y-87637380D01*
X91224761Y-87589761D01*
X91177142Y-87542142D01*
X91129523Y-87446904D01*
X91129523Y-87161190D01*
X91177142Y-87065952D01*
X91224761Y-87018333D01*
X91320000Y-86970714D01*
X91510476Y-86970714D01*
X91605714Y-87018333D01*
D11*
X72390000Y-82550000D02*
X232410000Y-82550000D01*
X72390000Y-123190000D02*
X72390000Y-82550000D01*
X232410000Y-123190000D02*
X72390000Y-123190000D01*
X232410000Y-82550000D02*
X232410000Y-123190000D01*
D12*
%TO.C,J1*%
X181670000Y-97850000D02*
X180340000Y-97850000D01*
X181670000Y-96520000D02*
X181670000Y-97850000D01*
X179070000Y-97850000D02*
X176470000Y-97850000D01*
X179070000Y-95250000D02*
X179070000Y-97850000D01*
X181670000Y-95250000D02*
X179070000Y-95250000D01*
X176470000Y-97850000D02*
X176470000Y-95190000D01*
X181670000Y-95250000D02*
X181670000Y-95190000D01*
X181670000Y-95190000D02*
X176470000Y-95190000D01*
D13*
%TO.C,Y1*%
X144399000Y-84074000D02*
X137541000Y-84074000D01*
X137541000Y-88646000D02*
X144399000Y-88646000D01*
X144399000Y-88646000D02*
G75*
G03*
X144399000Y-84074000I0J2286000D01*
G01*
X137541000Y-84074000D02*
G75*
G03*
X137541000Y-88646000I0J-2286000D01*
G01*
%TO.C,U2*%
X160020000Y-91440000D02*
X124460000Y-91440000D01*
X124460000Y-96520000D02*
X160020000Y-96520000D01*
X160020000Y-91440000D02*
X160020000Y-96520000D01*
X124460000Y-91440000D02*
X124460000Y-92964000D01*
X124460000Y-96520000D02*
X124460000Y-94996000D01*
D14*
X124333000Y-97155000D02*
G75*
G03*
X124333000Y-97155000I-508000J0D01*
G01*
D13*
X124460000Y-94996000D02*
G75*
G03*
X124460000Y-92964000I0J1016000D01*
G01*
D15*
%TO.C,U1*%
X173222920Y-92857320D02*
X184818020Y-92857320D01*
X184818020Y-92857320D02*
X184818020Y-84361020D01*
X184818020Y-84361020D02*
X173222920Y-84361020D01*
X173222920Y-84361020D02*
X173222920Y-92857320D01*
D13*
%TO.C,S3*%
X91948000Y-105029000D02*
X91948000Y-100711000D01*
X85852000Y-100711000D02*
X85852000Y-105029000D01*
X89895680Y-105918000D02*
X87884000Y-105918000D01*
X89926160Y-99822000D02*
X87884000Y-99822000D01*
X90678000Y-102870000D02*
G75*
G03*
X90678000Y-102870000I-1778000J0D01*
G01*
%TO.C,S2*%
X212852000Y-100711000D02*
X212852000Y-105029000D01*
X218948000Y-105029000D02*
X218948000Y-100711000D01*
X214904320Y-99822000D02*
X216916000Y-99822000D01*
X214873840Y-105918000D02*
X216916000Y-105918000D01*
X217678000Y-102870000D02*
G75*
G03*
X217678000Y-102870000I-1778000J0D01*
G01*
%TO.C,S1*%
X122428000Y-96139000D02*
X122428000Y-91821000D01*
X116332000Y-91821000D02*
X116332000Y-96139000D01*
X120375680Y-97028000D02*
X118364000Y-97028000D01*
X120406160Y-90932000D02*
X118364000Y-90932000D01*
X121158000Y-93980000D02*
G75*
G03*
X121158000Y-93980000I-1778000J0D01*
G01*
D12*
%TO.C,R12*%
X186590000Y-117570000D02*
X189330000Y-117570000D01*
X189330000Y-117570000D02*
X189330000Y-111030000D01*
X189330000Y-111030000D02*
X186590000Y-111030000D01*
X186590000Y-111030000D02*
X186590000Y-117570000D01*
X187960000Y-118340000D02*
X187960000Y-117570000D01*
X187960000Y-110260000D02*
X187960000Y-111030000D01*
%TO.C,R11*%
X168810000Y-117570000D02*
X171550000Y-117570000D01*
X171550000Y-117570000D02*
X171550000Y-111030000D01*
X171550000Y-111030000D02*
X168810000Y-111030000D01*
X168810000Y-111030000D02*
X168810000Y-117570000D01*
X170180000Y-118340000D02*
X170180000Y-117570000D01*
X170180000Y-110260000D02*
X170180000Y-111030000D01*
%TO.C,R10*%
X142140000Y-117570000D02*
X144880000Y-117570000D01*
X144880000Y-117570000D02*
X144880000Y-111030000D01*
X144880000Y-111030000D02*
X142140000Y-111030000D01*
X142140000Y-111030000D02*
X142140000Y-117570000D01*
X143510000Y-118340000D02*
X143510000Y-117570000D01*
X143510000Y-110260000D02*
X143510000Y-111030000D01*
%TO.C,R9*%
X124360000Y-117570000D02*
X127100000Y-117570000D01*
X127100000Y-117570000D02*
X127100000Y-111030000D01*
X127100000Y-111030000D02*
X124360000Y-111030000D01*
X124360000Y-111030000D02*
X124360000Y-117570000D01*
X125730000Y-118340000D02*
X125730000Y-117570000D01*
X125730000Y-110260000D02*
X125730000Y-111030000D01*
%TO.C,R8*%
X177700000Y-117570000D02*
X180440000Y-117570000D01*
X180440000Y-117570000D02*
X180440000Y-111030000D01*
X180440000Y-111030000D02*
X177700000Y-111030000D01*
X177700000Y-111030000D02*
X177700000Y-117570000D01*
X179070000Y-118340000D02*
X179070000Y-117570000D01*
X179070000Y-110260000D02*
X179070000Y-111030000D01*
%TO.C,R7*%
X159920000Y-117570000D02*
X162660000Y-117570000D01*
X162660000Y-117570000D02*
X162660000Y-111030000D01*
X162660000Y-111030000D02*
X159920000Y-111030000D01*
X159920000Y-111030000D02*
X159920000Y-117570000D01*
X161290000Y-118340000D02*
X161290000Y-117570000D01*
X161290000Y-110260000D02*
X161290000Y-111030000D01*
%TO.C,R6*%
X133250000Y-117570000D02*
X135990000Y-117570000D01*
X135990000Y-117570000D02*
X135990000Y-111030000D01*
X135990000Y-111030000D02*
X133250000Y-111030000D01*
X133250000Y-111030000D02*
X133250000Y-117570000D01*
X134620000Y-118340000D02*
X134620000Y-117570000D01*
X134620000Y-110260000D02*
X134620000Y-111030000D01*
%TO.C,R5*%
X115470000Y-117570000D02*
X118210000Y-117570000D01*
X118210000Y-117570000D02*
X118210000Y-111030000D01*
X118210000Y-111030000D02*
X115470000Y-111030000D01*
X115470000Y-111030000D02*
X115470000Y-117570000D01*
X116840000Y-118340000D02*
X116840000Y-117570000D01*
X116840000Y-110260000D02*
X116840000Y-111030000D01*
%TO.C,R4*%
X99600000Y-101500000D02*
X99600000Y-104240000D01*
X99600000Y-104240000D02*
X106140000Y-104240000D01*
X106140000Y-104240000D02*
X106140000Y-101500000D01*
X106140000Y-101500000D02*
X99600000Y-101500000D01*
X98830000Y-102870000D02*
X99600000Y-102870000D01*
X106910000Y-102870000D02*
X106140000Y-102870000D01*
%TO.C,R3*%
X205200000Y-104240000D02*
X205200000Y-101500000D01*
X205200000Y-101500000D02*
X198660000Y-101500000D01*
X198660000Y-101500000D02*
X198660000Y-104240000D01*
X198660000Y-104240000D02*
X205200000Y-104240000D01*
X205970000Y-102870000D02*
X205200000Y-102870000D01*
X197890000Y-102870000D02*
X198660000Y-102870000D01*
%TO.C,R2*%
X151030000Y-117570000D02*
X153770000Y-117570000D01*
X153770000Y-117570000D02*
X153770000Y-111030000D01*
X153770000Y-111030000D02*
X151030000Y-111030000D01*
X151030000Y-111030000D02*
X151030000Y-117570000D01*
X152400000Y-118340000D02*
X152400000Y-117570000D01*
X152400000Y-110260000D02*
X152400000Y-111030000D01*
%TO.C,R1*%
X123730000Y-84990000D02*
X123730000Y-87730000D01*
X123730000Y-87730000D02*
X130270000Y-87730000D01*
X130270000Y-87730000D02*
X130270000Y-84990000D01*
X130270000Y-84990000D02*
X123730000Y-84990000D01*
X122960000Y-86360000D02*
X123730000Y-86360000D01*
X131040000Y-86360000D02*
X130270000Y-86360000D01*
D13*
%TO.C,D9*%
X186055000Y-105410000D02*
X189865000Y-105410000D01*
X186055000Y-105410000D02*
X189865000Y-105410000D01*
D16*
X190500000Y-102870000D02*
G75*
G03*
X190500000Y-102870000I-2540000J0D01*
G01*
D14*
X189867668Y-105407997D02*
G75*
G03*
X186055000Y-105410000I-1907668J2537997D01*
G01*
D13*
%TO.C,D8*%
X168275000Y-105410000D02*
X172085000Y-105410000D01*
X168275000Y-105410000D02*
X172085000Y-105410000D01*
D16*
X172720000Y-102870000D02*
G75*
G03*
X172720000Y-102870000I-2540000J0D01*
G01*
D14*
X172087668Y-105407997D02*
G75*
G03*
X168275000Y-105410000I-1907668J2537997D01*
G01*
D13*
%TO.C,D7*%
X141605000Y-105410000D02*
X145415000Y-105410000D01*
X141605000Y-105410000D02*
X145415000Y-105410000D01*
D16*
X146050000Y-102870000D02*
G75*
G03*
X146050000Y-102870000I-2540000J0D01*
G01*
D14*
X145417668Y-105407997D02*
G75*
G03*
X141605000Y-105410000I-1907668J2537997D01*
G01*
D13*
%TO.C,D6*%
X123825000Y-105410000D02*
X127635000Y-105410000D01*
X123825000Y-105410000D02*
X127635000Y-105410000D01*
D16*
X128270000Y-102870000D02*
G75*
G03*
X128270000Y-102870000I-2540000J0D01*
G01*
D14*
X127637668Y-105407997D02*
G75*
G03*
X123825000Y-105410000I-1907668J2537997D01*
G01*
D13*
%TO.C,D5*%
X177165000Y-105410000D02*
X180975000Y-105410000D01*
X177165000Y-105410000D02*
X180975000Y-105410000D01*
D16*
X181610000Y-102870000D02*
G75*
G03*
X181610000Y-102870000I-2540000J0D01*
G01*
D14*
X180977668Y-105407997D02*
G75*
G03*
X177165000Y-105410000I-1907668J2537997D01*
G01*
D13*
%TO.C,D4*%
X159385000Y-105410000D02*
X163195000Y-105410000D01*
X159385000Y-105410000D02*
X163195000Y-105410000D01*
D16*
X163830000Y-102870000D02*
G75*
G03*
X163830000Y-102870000I-2540000J0D01*
G01*
D14*
X163197668Y-105407997D02*
G75*
G03*
X159385000Y-105410000I-1907668J2537997D01*
G01*
D13*
%TO.C,D3*%
X132715000Y-105410000D02*
X136525000Y-105410000D01*
X132715000Y-105410000D02*
X136525000Y-105410000D01*
D16*
X137160000Y-102870000D02*
G75*
G03*
X137160000Y-102870000I-2540000J0D01*
G01*
D14*
X136527668Y-105407997D02*
G75*
G03*
X132715000Y-105410000I-1907668J2537997D01*
G01*
D13*
%TO.C,D2*%
X114935000Y-105410000D02*
X118745000Y-105410000D01*
X114935000Y-105410000D02*
X118745000Y-105410000D01*
D16*
X119380000Y-102870000D02*
G75*
G03*
X119380000Y-102870000I-2540000J0D01*
G01*
D14*
X118747668Y-105407997D02*
G75*
G03*
X114935000Y-105410000I-1907668J2537997D01*
G01*
D13*
%TO.C,D1*%
X150495000Y-105410000D02*
X154305000Y-105410000D01*
X150495000Y-105410000D02*
X154305000Y-105410000D01*
D16*
X154940000Y-102870000D02*
G75*
G03*
X154940000Y-102870000I-2540000J0D01*
G01*
D14*
X154307668Y-105407997D02*
G75*
G03*
X150495000Y-105410000I-1907668J2537997D01*
G01*
D13*
%TO.C,C4*%
X167005000Y-91937840D02*
X167640000Y-91937840D01*
X167640000Y-91937840D02*
X168275000Y-91937840D01*
X167005000Y-90942160D02*
X167640000Y-90942160D01*
X167640000Y-90942160D02*
X168275000Y-90942160D01*
X167640000Y-91937840D02*
X167640000Y-94937580D01*
X167640000Y-90942160D02*
X167640000Y-87942420D01*
%TO.C,C3*%
X158115000Y-86360000D02*
X156845000Y-86360000D01*
%TO.C,C2*%
X151765000Y-86360000D02*
X150495000Y-86360000D01*
%TO.C,C1*%
X188595000Y-91937840D02*
X189230000Y-91937840D01*
X189230000Y-91937840D02*
X189865000Y-91937840D01*
X188595000Y-90942160D02*
X189230000Y-90942160D01*
X189230000Y-90942160D02*
X189865000Y-90942160D01*
X189230000Y-91937840D02*
X189230000Y-94937580D01*
X189230000Y-90942160D02*
X189230000Y-87942420D01*
%TD*%
%TO.C,J1*%
D10*
X178736666Y-98302380D02*
X178736666Y-99016666D01*
X178689047Y-99159523D01*
X178593809Y-99254761D01*
X178450952Y-99302380D01*
X178355714Y-99302380D01*
X179736666Y-99302380D02*
X179165238Y-99302380D01*
X179450952Y-99302380D02*
X179450952Y-98302380D01*
X179355714Y-98445238D01*
X179260476Y-98540476D01*
X179165238Y-98588095D01*
%TO.C,Y1*%
D15*
X140679714Y-89190285D02*
X140679714Y-89480571D01*
X140476514Y-88870971D02*
X140679714Y-89190285D01*
X140882914Y-88870971D01*
X141405428Y-89480571D02*
X141057085Y-89480571D01*
X141231257Y-89480571D02*
X141231257Y-88870971D01*
X141173200Y-88958057D01*
X141115142Y-89016114D01*
X141057085Y-89045142D01*
X134598228Y-83656714D02*
X134569200Y-83685742D01*
X134482114Y-83714771D01*
X134424057Y-83714771D01*
X134336971Y-83685742D01*
X134278914Y-83627685D01*
X134249885Y-83569628D01*
X134220857Y-83453514D01*
X134220857Y-83366428D01*
X134249885Y-83250314D01*
X134278914Y-83192257D01*
X134336971Y-83134200D01*
X134424057Y-83105171D01*
X134482114Y-83105171D01*
X134569200Y-83134200D01*
X134598228Y-83163228D01*
X135207828Y-83714771D02*
X135004628Y-83424485D01*
X134859485Y-83714771D02*
X134859485Y-83105171D01*
X135091714Y-83105171D01*
X135149771Y-83134200D01*
X135178800Y-83163228D01*
X135207828Y-83221285D01*
X135207828Y-83308371D01*
X135178800Y-83366428D01*
X135149771Y-83395457D01*
X135091714Y-83424485D01*
X134859485Y-83424485D01*
X135585200Y-83424485D02*
X135585200Y-83714771D01*
X135382000Y-83105171D02*
X135585200Y-83424485D01*
X135788400Y-83105171D01*
X135962571Y-83685742D02*
X136049657Y-83714771D01*
X136194800Y-83714771D01*
X136252857Y-83685742D01*
X136281885Y-83656714D01*
X136310914Y-83598657D01*
X136310914Y-83540600D01*
X136281885Y-83482542D01*
X136252857Y-83453514D01*
X136194800Y-83424485D01*
X136078685Y-83395457D01*
X136020628Y-83366428D01*
X135991600Y-83337400D01*
X135962571Y-83279342D01*
X135962571Y-83221285D01*
X135991600Y-83163228D01*
X136020628Y-83134200D01*
X136078685Y-83105171D01*
X136223828Y-83105171D01*
X136310914Y-83134200D01*
X136485085Y-83105171D02*
X136833428Y-83105171D01*
X136659257Y-83714771D02*
X136659257Y-83105171D01*
X137007600Y-83540600D02*
X137297885Y-83540600D01*
X136949542Y-83714771D02*
X137152742Y-83105171D01*
X137355942Y-83714771D01*
X137849428Y-83714771D02*
X137559142Y-83714771D01*
X137559142Y-83105171D01*
X138052628Y-83482542D02*
X138517085Y-83482542D01*
X139126685Y-83714771D02*
X138778342Y-83714771D01*
X138952514Y-83714771D02*
X138952514Y-83105171D01*
X138894457Y-83192257D01*
X138836400Y-83250314D01*
X138778342Y-83279342D01*
X139649200Y-83105171D02*
X139533085Y-83105171D01*
X139475028Y-83134200D01*
X139446000Y-83163228D01*
X139387942Y-83250314D01*
X139358914Y-83366428D01*
X139358914Y-83598657D01*
X139387942Y-83656714D01*
X139416971Y-83685742D01*
X139475028Y-83714771D01*
X139591142Y-83714771D01*
X139649200Y-83685742D01*
X139678228Y-83656714D01*
X139707257Y-83598657D01*
X139707257Y-83453514D01*
X139678228Y-83395457D01*
X139649200Y-83366428D01*
X139591142Y-83337400D01*
X139475028Y-83337400D01*
X139416971Y-83366428D01*
X139387942Y-83395457D01*
X139358914Y-83453514D01*
X139968514Y-83714771D02*
X139968514Y-83105171D01*
X140171714Y-83540600D01*
X140374914Y-83105171D01*
X140374914Y-83714771D01*
X140665200Y-83714771D02*
X140665200Y-83105171D01*
X140665200Y-83395457D02*
X141013542Y-83395457D01*
X141013542Y-83714771D02*
X141013542Y-83105171D01*
X141245771Y-83105171D02*
X141652171Y-83105171D01*
X141245771Y-83714771D01*
X141652171Y-83714771D01*
X141884400Y-83714771D02*
X141884400Y-83105171D01*
X142116628Y-83105171D01*
X142174685Y-83134200D01*
X142203714Y-83163228D01*
X142232742Y-83221285D01*
X142232742Y-83308371D01*
X142203714Y-83366428D01*
X142174685Y-83395457D01*
X142116628Y-83424485D01*
X141884400Y-83424485D01*
X142406914Y-83105171D02*
X142755257Y-83105171D01*
X142581085Y-83714771D02*
X142581085Y-83105171D01*
X142958457Y-83714771D02*
X142958457Y-83105171D01*
X142958457Y-83395457D02*
X143306800Y-83395457D01*
X143306800Y-83714771D02*
X143306800Y-83105171D01*
X143597085Y-83482542D02*
X144061542Y-83482542D01*
X144351828Y-83714771D02*
X144351828Y-83105171D01*
X144351828Y-83395457D02*
X144700171Y-83395457D01*
X144700171Y-83714771D02*
X144700171Y-83105171D01*
X145338800Y-83656714D02*
X145309771Y-83685742D01*
X145222685Y-83714771D01*
X145164628Y-83714771D01*
X145077542Y-83685742D01*
X145019485Y-83627685D01*
X144990457Y-83569628D01*
X144961428Y-83453514D01*
X144961428Y-83366428D01*
X144990457Y-83250314D01*
X145019485Y-83192257D01*
X145077542Y-83134200D01*
X145164628Y-83105171D01*
X145222685Y-83105171D01*
X145309771Y-83134200D01*
X145338800Y-83163228D01*
X145861314Y-83308371D02*
X145861314Y-83714771D01*
X145716171Y-83076142D02*
X145571028Y-83511571D01*
X145948400Y-83511571D01*
X146209657Y-83714771D02*
X146325771Y-83714771D01*
X146383828Y-83685742D01*
X146412857Y-83656714D01*
X146470914Y-83569628D01*
X146499942Y-83453514D01*
X146499942Y-83221285D01*
X146470914Y-83163228D01*
X146441885Y-83134200D01*
X146383828Y-83105171D01*
X146267714Y-83105171D01*
X146209657Y-83134200D01*
X146180628Y-83163228D01*
X146151600Y-83221285D01*
X146151600Y-83366428D01*
X146180628Y-83424485D01*
X146209657Y-83453514D01*
X146267714Y-83482542D01*
X146383828Y-83482542D01*
X146441885Y-83453514D01*
X146470914Y-83424485D01*
X146499942Y-83366428D01*
X146761200Y-83105171D02*
X146761200Y-83598657D01*
X146790228Y-83656714D01*
X146819257Y-83685742D01*
X146877314Y-83714771D01*
X146993428Y-83714771D01*
X147051485Y-83685742D01*
X147080514Y-83656714D01*
X147109542Y-83598657D01*
X147109542Y-83105171D01*
X147370800Y-83685742D02*
X147457885Y-83714771D01*
X147603028Y-83714771D01*
X147661085Y-83685742D01*
X147690114Y-83656714D01*
X147719142Y-83598657D01*
X147719142Y-83540600D01*
X147690114Y-83482542D01*
X147661085Y-83453514D01*
X147603028Y-83424485D01*
X147486914Y-83395457D01*
X147428857Y-83366428D01*
X147399828Y-83337400D01*
X147370800Y-83279342D01*
X147370800Y-83221285D01*
X147399828Y-83163228D01*
X147428857Y-83134200D01*
X147486914Y-83105171D01*
X147632057Y-83105171D01*
X147719142Y-83134200D01*
%TO.C,U2*%
X123491171Y-94444457D02*
X123984657Y-94444457D01*
X124042714Y-94415428D01*
X124071742Y-94386400D01*
X124100771Y-94328342D01*
X124100771Y-94212228D01*
X124071742Y-94154171D01*
X124042714Y-94125142D01*
X123984657Y-94096114D01*
X123491171Y-94096114D01*
X123549228Y-93834857D02*
X123520200Y-93805828D01*
X123491171Y-93747771D01*
X123491171Y-93602628D01*
X123520200Y-93544571D01*
X123549228Y-93515542D01*
X123607285Y-93486514D01*
X123665342Y-93486514D01*
X123752428Y-93515542D01*
X124100771Y-93863885D01*
X124100771Y-93486514D01*
X160756600Y-98014971D02*
X160756600Y-97724685D01*
X160930771Y-98073028D02*
X160321171Y-97869828D01*
X160930771Y-97666628D01*
X160321171Y-97550514D02*
X160321171Y-97202171D01*
X160930771Y-97376342D02*
X160321171Y-97376342D01*
X160930771Y-96998971D02*
X160321171Y-96998971D01*
X160756600Y-96795771D01*
X160321171Y-96592571D01*
X160930771Y-96592571D01*
X160611457Y-96302285D02*
X160611457Y-96099085D01*
X160930771Y-96012000D02*
X160930771Y-96302285D01*
X160321171Y-96302285D01*
X160321171Y-96012000D01*
X160350200Y-95431428D02*
X160321171Y-95489485D01*
X160321171Y-95576571D01*
X160350200Y-95663657D01*
X160408257Y-95721714D01*
X160466314Y-95750742D01*
X160582428Y-95779771D01*
X160669514Y-95779771D01*
X160785628Y-95750742D01*
X160843685Y-95721714D01*
X160901742Y-95663657D01*
X160930771Y-95576571D01*
X160930771Y-95518514D01*
X160901742Y-95431428D01*
X160872714Y-95402400D01*
X160669514Y-95402400D01*
X160669514Y-95518514D01*
X160756600Y-95170171D02*
X160756600Y-94879885D01*
X160930771Y-95228228D02*
X160321171Y-95025028D01*
X160930771Y-94821828D01*
X160321171Y-94676685D02*
X160321171Y-94299314D01*
X160553400Y-94502514D01*
X160553400Y-94415428D01*
X160582428Y-94357371D01*
X160611457Y-94328342D01*
X160669514Y-94299314D01*
X160814657Y-94299314D01*
X160872714Y-94328342D01*
X160901742Y-94357371D01*
X160930771Y-94415428D01*
X160930771Y-94589600D01*
X160901742Y-94647657D01*
X160872714Y-94676685D01*
X160379228Y-94067085D02*
X160350200Y-94038057D01*
X160321171Y-93980000D01*
X160321171Y-93834857D01*
X160350200Y-93776800D01*
X160379228Y-93747771D01*
X160437285Y-93718742D01*
X160495342Y-93718742D01*
X160582428Y-93747771D01*
X160930771Y-94096114D01*
X160930771Y-93718742D01*
X160582428Y-93370400D02*
X160553400Y-93428457D01*
X160524371Y-93457485D01*
X160466314Y-93486514D01*
X160437285Y-93486514D01*
X160379228Y-93457485D01*
X160350200Y-93428457D01*
X160321171Y-93370400D01*
X160321171Y-93254285D01*
X160350200Y-93196228D01*
X160379228Y-93167200D01*
X160437285Y-93138171D01*
X160466314Y-93138171D01*
X160524371Y-93167200D01*
X160553400Y-93196228D01*
X160582428Y-93254285D01*
X160582428Y-93370400D01*
X160611457Y-93428457D01*
X160640485Y-93457485D01*
X160698542Y-93486514D01*
X160814657Y-93486514D01*
X160872714Y-93457485D01*
X160901742Y-93428457D01*
X160930771Y-93370400D01*
X160930771Y-93254285D01*
X160901742Y-93196228D01*
X160872714Y-93167200D01*
X160814657Y-93138171D01*
X160698542Y-93138171D01*
X160640485Y-93167200D01*
X160611457Y-93196228D01*
X160582428Y-93254285D01*
X160930771Y-92876914D02*
X160321171Y-92876914D01*
X160321171Y-92644685D01*
X160350200Y-92586628D01*
X160379228Y-92557600D01*
X160437285Y-92528571D01*
X160524371Y-92528571D01*
X160582428Y-92557600D01*
X160611457Y-92586628D01*
X160640485Y-92644685D01*
X160640485Y-92876914D01*
X160988828Y-92412457D02*
X160988828Y-91948000D01*
X160930771Y-91802857D02*
X160321171Y-91802857D01*
X160321171Y-91570628D01*
X160350200Y-91512571D01*
X160379228Y-91483542D01*
X160437285Y-91454514D01*
X160524371Y-91454514D01*
X160582428Y-91483542D01*
X160611457Y-91512571D01*
X160640485Y-91570628D01*
X160640485Y-91802857D01*
X160930771Y-91193257D02*
X160321171Y-91193257D01*
X160321171Y-91048114D01*
X160350200Y-90961028D01*
X160408257Y-90902971D01*
X160466314Y-90873942D01*
X160582428Y-90844914D01*
X160669514Y-90844914D01*
X160785628Y-90873942D01*
X160843685Y-90902971D01*
X160901742Y-90961028D01*
X160930771Y-91048114D01*
X160930771Y-91193257D01*
X160930771Y-90583657D02*
X160321171Y-90583657D01*
X160930771Y-90293371D02*
X160321171Y-90293371D01*
X160321171Y-90061142D01*
X160350200Y-90003085D01*
X160379228Y-89974057D01*
X160437285Y-89945028D01*
X160524371Y-89945028D01*
X160582428Y-89974057D01*
X160611457Y-90003085D01*
X160640485Y-90061142D01*
X160640485Y-90293371D01*
%TO.C,U1*%
X178605542Y-93138171D02*
X178605542Y-93631657D01*
X178634571Y-93689714D01*
X178663600Y-93718742D01*
X178721657Y-93747771D01*
X178837771Y-93747771D01*
X178895828Y-93718742D01*
X178924857Y-93689714D01*
X178953885Y-93631657D01*
X178953885Y-93138171D01*
X179563485Y-93747771D02*
X179215142Y-93747771D01*
X179389314Y-93747771D02*
X179389314Y-93138171D01*
X179331257Y-93225257D01*
X179273200Y-93283314D01*
X179215142Y-93312342D01*
X176196171Y-83968771D02*
X175992971Y-83678485D01*
X175847828Y-83968771D02*
X175847828Y-83359171D01*
X176080057Y-83359171D01*
X176138114Y-83388200D01*
X176167142Y-83417228D01*
X176196171Y-83475285D01*
X176196171Y-83562371D01*
X176167142Y-83620428D01*
X176138114Y-83649457D01*
X176080057Y-83678485D01*
X175847828Y-83678485D01*
X176457428Y-83736542D02*
X176921885Y-83736542D01*
X177154114Y-83359171D02*
X177560514Y-83359171D01*
X177299257Y-83968771D01*
X177879828Y-83620428D02*
X177821771Y-83591400D01*
X177792742Y-83562371D01*
X177763714Y-83504314D01*
X177763714Y-83475285D01*
X177792742Y-83417228D01*
X177821771Y-83388200D01*
X177879828Y-83359171D01*
X177995942Y-83359171D01*
X178054000Y-83388200D01*
X178083028Y-83417228D01*
X178112057Y-83475285D01*
X178112057Y-83504314D01*
X178083028Y-83562371D01*
X178054000Y-83591400D01*
X177995942Y-83620428D01*
X177879828Y-83620428D01*
X177821771Y-83649457D01*
X177792742Y-83678485D01*
X177763714Y-83736542D01*
X177763714Y-83852657D01*
X177792742Y-83910714D01*
X177821771Y-83939742D01*
X177879828Y-83968771D01*
X177995942Y-83968771D01*
X178054000Y-83939742D01*
X178083028Y-83910714D01*
X178112057Y-83852657D01*
X178112057Y-83736542D01*
X178083028Y-83678485D01*
X178054000Y-83649457D01*
X177995942Y-83620428D01*
X178373314Y-83649457D02*
X178576514Y-83649457D01*
X178663600Y-83968771D02*
X178373314Y-83968771D01*
X178373314Y-83359171D01*
X178663600Y-83359171D01*
X179215142Y-83359171D02*
X178924857Y-83359171D01*
X178895828Y-83649457D01*
X178924857Y-83620428D01*
X178982914Y-83591400D01*
X179128057Y-83591400D01*
X179186114Y-83620428D01*
X179215142Y-83649457D01*
X179244171Y-83707514D01*
X179244171Y-83852657D01*
X179215142Y-83910714D01*
X179186114Y-83939742D01*
X179128057Y-83968771D01*
X178982914Y-83968771D01*
X178924857Y-83939742D01*
X178895828Y-83910714D01*
X179505428Y-83910714D02*
X179534457Y-83939742D01*
X179505428Y-83968771D01*
X179476400Y-83939742D01*
X179505428Y-83910714D01*
X179505428Y-83968771D01*
X179911828Y-83359171D02*
X179969885Y-83359171D01*
X180027942Y-83388200D01*
X180056971Y-83417228D01*
X180086000Y-83475285D01*
X180115028Y-83591400D01*
X180115028Y-83736542D01*
X180086000Y-83852657D01*
X180056971Y-83910714D01*
X180027942Y-83939742D01*
X179969885Y-83968771D01*
X179911828Y-83968771D01*
X179853771Y-83939742D01*
X179824742Y-83910714D01*
X179795714Y-83852657D01*
X179766685Y-83736542D01*
X179766685Y-83591400D01*
X179795714Y-83475285D01*
X179824742Y-83417228D01*
X179853771Y-83388200D01*
X179911828Y-83359171D01*
X180376285Y-83736542D02*
X180840742Y-83736542D01*
X181450342Y-83968771D02*
X181102000Y-83968771D01*
X181276171Y-83968771D02*
X181276171Y-83359171D01*
X181218114Y-83446257D01*
X181160057Y-83504314D01*
X181102000Y-83533342D01*
X181711600Y-83910714D02*
X181740628Y-83939742D01*
X181711600Y-83968771D01*
X181682571Y-83939742D01*
X181711600Y-83910714D01*
X181711600Y-83968771D01*
X182118000Y-83359171D02*
X182176057Y-83359171D01*
X182234114Y-83388200D01*
X182263142Y-83417228D01*
X182292171Y-83475285D01*
X182321200Y-83591400D01*
X182321200Y-83736542D01*
X182292171Y-83852657D01*
X182263142Y-83910714D01*
X182234114Y-83939742D01*
X182176057Y-83968771D01*
X182118000Y-83968771D01*
X182059942Y-83939742D01*
X182030914Y-83910714D01*
X182001885Y-83852657D01*
X181972857Y-83736542D01*
X181972857Y-83591400D01*
X182001885Y-83475285D01*
X182030914Y-83417228D01*
X182059942Y-83388200D01*
X182118000Y-83359171D01*
%TO.C,S3*%
X92829742Y-103334457D02*
X92858771Y-103247371D01*
X92858771Y-103102228D01*
X92829742Y-103044171D01*
X92800714Y-103015142D01*
X92742657Y-102986114D01*
X92684600Y-102986114D01*
X92626542Y-103015142D01*
X92597514Y-103044171D01*
X92568485Y-103102228D01*
X92539457Y-103218342D01*
X92510428Y-103276400D01*
X92481400Y-103305428D01*
X92423342Y-103334457D01*
X92365285Y-103334457D01*
X92307228Y-103305428D01*
X92278200Y-103276400D01*
X92249171Y-103218342D01*
X92249171Y-103073200D01*
X92278200Y-102986114D01*
X92249171Y-102782914D02*
X92249171Y-102405542D01*
X92481400Y-102608742D01*
X92481400Y-102521657D01*
X92510428Y-102463600D01*
X92539457Y-102434571D01*
X92597514Y-102405542D01*
X92742657Y-102405542D01*
X92800714Y-102434571D01*
X92829742Y-102463600D01*
X92858771Y-102521657D01*
X92858771Y-102695828D01*
X92829742Y-102753885D01*
X92800714Y-102782914D01*
X85365771Y-111941428D02*
X84756171Y-111941428D01*
X85191600Y-111738228D01*
X84756171Y-111535028D01*
X85365771Y-111535028D01*
X84756171Y-111128628D02*
X84756171Y-111012514D01*
X84785200Y-110954457D01*
X84843257Y-110896400D01*
X84959371Y-110867371D01*
X85162571Y-110867371D01*
X85278685Y-110896400D01*
X85336742Y-110954457D01*
X85365771Y-111012514D01*
X85365771Y-111128628D01*
X85336742Y-111186685D01*
X85278685Y-111244742D01*
X85162571Y-111273771D01*
X84959371Y-111273771D01*
X84843257Y-111244742D01*
X84785200Y-111186685D01*
X84756171Y-111128628D01*
X85365771Y-110606114D02*
X84756171Y-110606114D01*
X85191600Y-110402914D01*
X84756171Y-110199714D01*
X85365771Y-110199714D01*
X85046457Y-109909428D02*
X85046457Y-109706228D01*
X85365771Y-109619142D02*
X85365771Y-109909428D01*
X84756171Y-109909428D01*
X84756171Y-109619142D01*
X85365771Y-109357885D02*
X84756171Y-109357885D01*
X85365771Y-109009542D01*
X84756171Y-109009542D01*
X84756171Y-108806342D02*
X84756171Y-108458000D01*
X85365771Y-108632171D02*
X84756171Y-108632171D01*
X85191600Y-108283828D02*
X85191600Y-107993542D01*
X85365771Y-108341885D02*
X84756171Y-108138685D01*
X85365771Y-107935485D01*
X85365771Y-107383942D02*
X85075485Y-107587142D01*
X85365771Y-107732285D02*
X84756171Y-107732285D01*
X84756171Y-107500057D01*
X84785200Y-107442000D01*
X84814228Y-107412971D01*
X84872285Y-107383942D01*
X84959371Y-107383942D01*
X85017428Y-107412971D01*
X85046457Y-107442000D01*
X85075485Y-107500057D01*
X85075485Y-107732285D01*
X85075485Y-107006571D02*
X85365771Y-107006571D01*
X84756171Y-107209771D02*
X85075485Y-107006571D01*
X84756171Y-106803371D01*
X85133542Y-106600171D02*
X85133542Y-106135714D01*
X85336742Y-105874457D02*
X85365771Y-105787371D01*
X85365771Y-105642228D01*
X85336742Y-105584171D01*
X85307714Y-105555142D01*
X85249657Y-105526114D01*
X85191600Y-105526114D01*
X85133542Y-105555142D01*
X85104514Y-105584171D01*
X85075485Y-105642228D01*
X85046457Y-105758342D01*
X85017428Y-105816400D01*
X84988400Y-105845428D01*
X84930342Y-105874457D01*
X84872285Y-105874457D01*
X84814228Y-105845428D01*
X84785200Y-105816400D01*
X84756171Y-105758342D01*
X84756171Y-105613200D01*
X84785200Y-105526114D01*
X84756171Y-105322914D02*
X85365771Y-105177771D01*
X84930342Y-105061657D01*
X85365771Y-104945542D01*
X84756171Y-104800400D01*
X85365771Y-104568171D02*
X84756171Y-104568171D01*
X84756171Y-104364971D02*
X84756171Y-104016628D01*
X85365771Y-104190800D02*
X84756171Y-104190800D01*
X85307714Y-103465085D02*
X85336742Y-103494114D01*
X85365771Y-103581200D01*
X85365771Y-103639257D01*
X85336742Y-103726342D01*
X85278685Y-103784400D01*
X85220628Y-103813428D01*
X85104514Y-103842457D01*
X85017428Y-103842457D01*
X84901314Y-103813428D01*
X84843257Y-103784400D01*
X84785200Y-103726342D01*
X84756171Y-103639257D01*
X84756171Y-103581200D01*
X84785200Y-103494114D01*
X84814228Y-103465085D01*
X85365771Y-103203828D02*
X84756171Y-103203828D01*
X85046457Y-103203828D02*
X85046457Y-102855485D01*
X85365771Y-102855485D02*
X84756171Y-102855485D01*
X85133542Y-102565200D02*
X85133542Y-102100742D01*
X85336742Y-101839485D02*
X85365771Y-101752400D01*
X85365771Y-101607257D01*
X85336742Y-101549200D01*
X85307714Y-101520171D01*
X85249657Y-101491142D01*
X85191600Y-101491142D01*
X85133542Y-101520171D01*
X85104514Y-101549200D01*
X85075485Y-101607257D01*
X85046457Y-101723371D01*
X85017428Y-101781428D01*
X84988400Y-101810457D01*
X84930342Y-101839485D01*
X84872285Y-101839485D01*
X84814228Y-101810457D01*
X84785200Y-101781428D01*
X84756171Y-101723371D01*
X84756171Y-101578228D01*
X84785200Y-101491142D01*
X85365771Y-101229885D02*
X84756171Y-101229885D01*
X84756171Y-100997657D01*
X84785200Y-100939600D01*
X84814228Y-100910571D01*
X84872285Y-100881542D01*
X84959371Y-100881542D01*
X85017428Y-100910571D01*
X85046457Y-100939600D01*
X85075485Y-100997657D01*
X85075485Y-101229885D01*
X85336742Y-100649314D02*
X85365771Y-100562228D01*
X85365771Y-100417085D01*
X85336742Y-100359028D01*
X85307714Y-100330000D01*
X85249657Y-100300971D01*
X85191600Y-100300971D01*
X85133542Y-100330000D01*
X85104514Y-100359028D01*
X85075485Y-100417085D01*
X85046457Y-100533200D01*
X85017428Y-100591257D01*
X84988400Y-100620285D01*
X84930342Y-100649314D01*
X84872285Y-100649314D01*
X84814228Y-100620285D01*
X84785200Y-100591257D01*
X84756171Y-100533200D01*
X84756171Y-100388057D01*
X84785200Y-100300971D01*
X84756171Y-100126800D02*
X84756171Y-99778457D01*
X85365771Y-99952628D02*
X84756171Y-99952628D01*
X85133542Y-99575257D02*
X85133542Y-99110800D01*
X85365771Y-98820514D02*
X84756171Y-98820514D01*
X84756171Y-98588285D01*
X84785200Y-98530228D01*
X84814228Y-98501200D01*
X84872285Y-98472171D01*
X84959371Y-98472171D01*
X85017428Y-98501200D01*
X85046457Y-98530228D01*
X85075485Y-98588285D01*
X85075485Y-98820514D01*
X84756171Y-98298000D02*
X84756171Y-97949657D01*
X85365771Y-98123828D02*
X84756171Y-98123828D01*
X85365771Y-97746457D02*
X84756171Y-97746457D01*
X85046457Y-97746457D02*
X85046457Y-97398114D01*
X85365771Y-97398114D02*
X84756171Y-97398114D01*
X85133542Y-97107828D02*
X85133542Y-96643371D01*
X84756171Y-96091828D02*
X84756171Y-96207942D01*
X84785200Y-96266000D01*
X84814228Y-96295028D01*
X84901314Y-96353085D01*
X85017428Y-96382114D01*
X85249657Y-96382114D01*
X85307714Y-96353085D01*
X85336742Y-96324057D01*
X85365771Y-96266000D01*
X85365771Y-96149885D01*
X85336742Y-96091828D01*
X85307714Y-96062800D01*
X85249657Y-96033771D01*
X85104514Y-96033771D01*
X85046457Y-96062800D01*
X85017428Y-96091828D01*
X84988400Y-96149885D01*
X84988400Y-96266000D01*
X85017428Y-96324057D01*
X85046457Y-96353085D01*
X85104514Y-96382114D01*
X85307714Y-95772514D02*
X85336742Y-95743485D01*
X85365771Y-95772514D01*
X85336742Y-95801542D01*
X85307714Y-95772514D01*
X85365771Y-95772514D01*
X84756171Y-95366114D02*
X84756171Y-95308057D01*
X84785200Y-95250000D01*
X84814228Y-95220971D01*
X84872285Y-95191942D01*
X84988400Y-95162914D01*
X85133542Y-95162914D01*
X85249657Y-95191942D01*
X85307714Y-95220971D01*
X85336742Y-95250000D01*
X85365771Y-95308057D01*
X85365771Y-95366114D01*
X85336742Y-95424171D01*
X85307714Y-95453200D01*
X85249657Y-95482228D01*
X85133542Y-95511257D01*
X84988400Y-95511257D01*
X84872285Y-95482228D01*
X84814228Y-95453200D01*
X84785200Y-95424171D01*
X84756171Y-95366114D01*
X85365771Y-94901657D02*
X84756171Y-94901657D01*
X85191600Y-94698457D01*
X84756171Y-94495257D01*
X85365771Y-94495257D01*
X85365771Y-94204971D02*
X84756171Y-94204971D01*
X85191600Y-94001771D01*
X84756171Y-93798571D01*
X85365771Y-93798571D01*
%TO.C,S2*%
X212463742Y-103334457D02*
X212492771Y-103247371D01*
X212492771Y-103102228D01*
X212463742Y-103044171D01*
X212434714Y-103015142D01*
X212376657Y-102986114D01*
X212318600Y-102986114D01*
X212260542Y-103015142D01*
X212231514Y-103044171D01*
X212202485Y-103102228D01*
X212173457Y-103218342D01*
X212144428Y-103276400D01*
X212115400Y-103305428D01*
X212057342Y-103334457D01*
X211999285Y-103334457D01*
X211941228Y-103305428D01*
X211912200Y-103276400D01*
X211883171Y-103218342D01*
X211883171Y-103073200D01*
X211912200Y-102986114D01*
X211941228Y-102753885D02*
X211912200Y-102724857D01*
X211883171Y-102666800D01*
X211883171Y-102521657D01*
X211912200Y-102463600D01*
X211941228Y-102434571D01*
X211999285Y-102405542D01*
X212057342Y-102405542D01*
X212144428Y-102434571D01*
X212492771Y-102782914D01*
X212492771Y-102405542D01*
X219985771Y-111941428D02*
X219376171Y-111941428D01*
X219811600Y-111738228D01*
X219376171Y-111535028D01*
X219985771Y-111535028D01*
X219376171Y-111128628D02*
X219376171Y-111012514D01*
X219405200Y-110954457D01*
X219463257Y-110896400D01*
X219579371Y-110867371D01*
X219782571Y-110867371D01*
X219898685Y-110896400D01*
X219956742Y-110954457D01*
X219985771Y-111012514D01*
X219985771Y-111128628D01*
X219956742Y-111186685D01*
X219898685Y-111244742D01*
X219782571Y-111273771D01*
X219579371Y-111273771D01*
X219463257Y-111244742D01*
X219405200Y-111186685D01*
X219376171Y-111128628D01*
X219985771Y-110606114D02*
X219376171Y-110606114D01*
X219811600Y-110402914D01*
X219376171Y-110199714D01*
X219985771Y-110199714D01*
X219666457Y-109909428D02*
X219666457Y-109706228D01*
X219985771Y-109619142D02*
X219985771Y-109909428D01*
X219376171Y-109909428D01*
X219376171Y-109619142D01*
X219985771Y-109357885D02*
X219376171Y-109357885D01*
X219985771Y-109009542D01*
X219376171Y-109009542D01*
X219376171Y-108806342D02*
X219376171Y-108458000D01*
X219985771Y-108632171D02*
X219376171Y-108632171D01*
X219811600Y-108283828D02*
X219811600Y-107993542D01*
X219985771Y-108341885D02*
X219376171Y-108138685D01*
X219985771Y-107935485D01*
X219985771Y-107383942D02*
X219695485Y-107587142D01*
X219985771Y-107732285D02*
X219376171Y-107732285D01*
X219376171Y-107500057D01*
X219405200Y-107442000D01*
X219434228Y-107412971D01*
X219492285Y-107383942D01*
X219579371Y-107383942D01*
X219637428Y-107412971D01*
X219666457Y-107442000D01*
X219695485Y-107500057D01*
X219695485Y-107732285D01*
X219695485Y-107006571D02*
X219985771Y-107006571D01*
X219376171Y-107209771D02*
X219695485Y-107006571D01*
X219376171Y-106803371D01*
X219753542Y-106600171D02*
X219753542Y-106135714D01*
X219956742Y-105874457D02*
X219985771Y-105787371D01*
X219985771Y-105642228D01*
X219956742Y-105584171D01*
X219927714Y-105555142D01*
X219869657Y-105526114D01*
X219811600Y-105526114D01*
X219753542Y-105555142D01*
X219724514Y-105584171D01*
X219695485Y-105642228D01*
X219666457Y-105758342D01*
X219637428Y-105816400D01*
X219608400Y-105845428D01*
X219550342Y-105874457D01*
X219492285Y-105874457D01*
X219434228Y-105845428D01*
X219405200Y-105816400D01*
X219376171Y-105758342D01*
X219376171Y-105613200D01*
X219405200Y-105526114D01*
X219376171Y-105322914D02*
X219985771Y-105177771D01*
X219550342Y-105061657D01*
X219985771Y-104945542D01*
X219376171Y-104800400D01*
X219985771Y-104568171D02*
X219376171Y-104568171D01*
X219376171Y-104364971D02*
X219376171Y-104016628D01*
X219985771Y-104190800D02*
X219376171Y-104190800D01*
X219927714Y-103465085D02*
X219956742Y-103494114D01*
X219985771Y-103581200D01*
X219985771Y-103639257D01*
X219956742Y-103726342D01*
X219898685Y-103784400D01*
X219840628Y-103813428D01*
X219724514Y-103842457D01*
X219637428Y-103842457D01*
X219521314Y-103813428D01*
X219463257Y-103784400D01*
X219405200Y-103726342D01*
X219376171Y-103639257D01*
X219376171Y-103581200D01*
X219405200Y-103494114D01*
X219434228Y-103465085D01*
X219985771Y-103203828D02*
X219376171Y-103203828D01*
X219666457Y-103203828D02*
X219666457Y-102855485D01*
X219985771Y-102855485D02*
X219376171Y-102855485D01*
X219753542Y-102565200D02*
X219753542Y-102100742D01*
X219956742Y-101839485D02*
X219985771Y-101752400D01*
X219985771Y-101607257D01*
X219956742Y-101549200D01*
X219927714Y-101520171D01*
X219869657Y-101491142D01*
X219811600Y-101491142D01*
X219753542Y-101520171D01*
X219724514Y-101549200D01*
X219695485Y-101607257D01*
X219666457Y-101723371D01*
X219637428Y-101781428D01*
X219608400Y-101810457D01*
X219550342Y-101839485D01*
X219492285Y-101839485D01*
X219434228Y-101810457D01*
X219405200Y-101781428D01*
X219376171Y-101723371D01*
X219376171Y-101578228D01*
X219405200Y-101491142D01*
X219985771Y-101229885D02*
X219376171Y-101229885D01*
X219376171Y-100997657D01*
X219405200Y-100939600D01*
X219434228Y-100910571D01*
X219492285Y-100881542D01*
X219579371Y-100881542D01*
X219637428Y-100910571D01*
X219666457Y-100939600D01*
X219695485Y-100997657D01*
X219695485Y-101229885D01*
X219956742Y-100649314D02*
X219985771Y-100562228D01*
X219985771Y-100417085D01*
X219956742Y-100359028D01*
X219927714Y-100330000D01*
X219869657Y-100300971D01*
X219811600Y-100300971D01*
X219753542Y-100330000D01*
X219724514Y-100359028D01*
X219695485Y-100417085D01*
X219666457Y-100533200D01*
X219637428Y-100591257D01*
X219608400Y-100620285D01*
X219550342Y-100649314D01*
X219492285Y-100649314D01*
X219434228Y-100620285D01*
X219405200Y-100591257D01*
X219376171Y-100533200D01*
X219376171Y-100388057D01*
X219405200Y-100300971D01*
X219376171Y-100126800D02*
X219376171Y-99778457D01*
X219985771Y-99952628D02*
X219376171Y-99952628D01*
X219753542Y-99575257D02*
X219753542Y-99110800D01*
X219985771Y-98820514D02*
X219376171Y-98820514D01*
X219376171Y-98588285D01*
X219405200Y-98530228D01*
X219434228Y-98501200D01*
X219492285Y-98472171D01*
X219579371Y-98472171D01*
X219637428Y-98501200D01*
X219666457Y-98530228D01*
X219695485Y-98588285D01*
X219695485Y-98820514D01*
X219376171Y-98298000D02*
X219376171Y-97949657D01*
X219985771Y-98123828D02*
X219376171Y-98123828D01*
X219985771Y-97746457D02*
X219376171Y-97746457D01*
X219666457Y-97746457D02*
X219666457Y-97398114D01*
X219985771Y-97398114D02*
X219376171Y-97398114D01*
X219753542Y-97107828D02*
X219753542Y-96643371D01*
X219376171Y-96091828D02*
X219376171Y-96207942D01*
X219405200Y-96266000D01*
X219434228Y-96295028D01*
X219521314Y-96353085D01*
X219637428Y-96382114D01*
X219869657Y-96382114D01*
X219927714Y-96353085D01*
X219956742Y-96324057D01*
X219985771Y-96266000D01*
X219985771Y-96149885D01*
X219956742Y-96091828D01*
X219927714Y-96062800D01*
X219869657Y-96033771D01*
X219724514Y-96033771D01*
X219666457Y-96062800D01*
X219637428Y-96091828D01*
X219608400Y-96149885D01*
X219608400Y-96266000D01*
X219637428Y-96324057D01*
X219666457Y-96353085D01*
X219724514Y-96382114D01*
X219927714Y-95772514D02*
X219956742Y-95743485D01*
X219985771Y-95772514D01*
X219956742Y-95801542D01*
X219927714Y-95772514D01*
X219985771Y-95772514D01*
X219376171Y-95366114D02*
X219376171Y-95308057D01*
X219405200Y-95250000D01*
X219434228Y-95220971D01*
X219492285Y-95191942D01*
X219608400Y-95162914D01*
X219753542Y-95162914D01*
X219869657Y-95191942D01*
X219927714Y-95220971D01*
X219956742Y-95250000D01*
X219985771Y-95308057D01*
X219985771Y-95366114D01*
X219956742Y-95424171D01*
X219927714Y-95453200D01*
X219869657Y-95482228D01*
X219753542Y-95511257D01*
X219608400Y-95511257D01*
X219492285Y-95482228D01*
X219434228Y-95453200D01*
X219405200Y-95424171D01*
X219376171Y-95366114D01*
X219985771Y-94901657D02*
X219376171Y-94901657D01*
X219811600Y-94698457D01*
X219376171Y-94495257D01*
X219985771Y-94495257D01*
X219985771Y-94204971D02*
X219376171Y-94204971D01*
X219811600Y-94001771D01*
X219376171Y-93798571D01*
X219985771Y-93798571D01*
%TO.C,S1*%
X123309742Y-94444457D02*
X123338771Y-94357371D01*
X123338771Y-94212228D01*
X123309742Y-94154171D01*
X123280714Y-94125142D01*
X123222657Y-94096114D01*
X123164600Y-94096114D01*
X123106542Y-94125142D01*
X123077514Y-94154171D01*
X123048485Y-94212228D01*
X123019457Y-94328342D01*
X122990428Y-94386400D01*
X122961400Y-94415428D01*
X122903342Y-94444457D01*
X122845285Y-94444457D01*
X122787228Y-94415428D01*
X122758200Y-94386400D01*
X122729171Y-94328342D01*
X122729171Y-94183200D01*
X122758200Y-94096114D01*
X123338771Y-93515542D02*
X123338771Y-93863885D01*
X123338771Y-93689714D02*
X122729171Y-93689714D01*
X122816257Y-93747771D01*
X122874314Y-93805828D01*
X122903342Y-93863885D01*
X115845771Y-103051428D02*
X115236171Y-103051428D01*
X115671600Y-102848228D01*
X115236171Y-102645028D01*
X115845771Y-102645028D01*
X115236171Y-102238628D02*
X115236171Y-102122514D01*
X115265200Y-102064457D01*
X115323257Y-102006400D01*
X115439371Y-101977371D01*
X115642571Y-101977371D01*
X115758685Y-102006400D01*
X115816742Y-102064457D01*
X115845771Y-102122514D01*
X115845771Y-102238628D01*
X115816742Y-102296685D01*
X115758685Y-102354742D01*
X115642571Y-102383771D01*
X115439371Y-102383771D01*
X115323257Y-102354742D01*
X115265200Y-102296685D01*
X115236171Y-102238628D01*
X115845771Y-101716114D02*
X115236171Y-101716114D01*
X115671600Y-101512914D01*
X115236171Y-101309714D01*
X115845771Y-101309714D01*
X115526457Y-101019428D02*
X115526457Y-100816228D01*
X115845771Y-100729142D02*
X115845771Y-101019428D01*
X115236171Y-101019428D01*
X115236171Y-100729142D01*
X115845771Y-100467885D02*
X115236171Y-100467885D01*
X115845771Y-100119542D01*
X115236171Y-100119542D01*
X115236171Y-99916342D02*
X115236171Y-99568000D01*
X115845771Y-99742171D02*
X115236171Y-99742171D01*
X115671600Y-99393828D02*
X115671600Y-99103542D01*
X115845771Y-99451885D02*
X115236171Y-99248685D01*
X115845771Y-99045485D01*
X115845771Y-98493942D02*
X115555485Y-98697142D01*
X115845771Y-98842285D02*
X115236171Y-98842285D01*
X115236171Y-98610057D01*
X115265200Y-98552000D01*
X115294228Y-98522971D01*
X115352285Y-98493942D01*
X115439371Y-98493942D01*
X115497428Y-98522971D01*
X115526457Y-98552000D01*
X115555485Y-98610057D01*
X115555485Y-98842285D01*
X115555485Y-98116571D02*
X115845771Y-98116571D01*
X115236171Y-98319771D02*
X115555485Y-98116571D01*
X115236171Y-97913371D01*
X115613542Y-97710171D02*
X115613542Y-97245714D01*
X115816742Y-96984457D02*
X115845771Y-96897371D01*
X115845771Y-96752228D01*
X115816742Y-96694171D01*
X115787714Y-96665142D01*
X115729657Y-96636114D01*
X115671600Y-96636114D01*
X115613542Y-96665142D01*
X115584514Y-96694171D01*
X115555485Y-96752228D01*
X115526457Y-96868342D01*
X115497428Y-96926400D01*
X115468400Y-96955428D01*
X115410342Y-96984457D01*
X115352285Y-96984457D01*
X115294228Y-96955428D01*
X115265200Y-96926400D01*
X115236171Y-96868342D01*
X115236171Y-96723200D01*
X115265200Y-96636114D01*
X115236171Y-96432914D02*
X115845771Y-96287771D01*
X115410342Y-96171657D01*
X115845771Y-96055542D01*
X115236171Y-95910400D01*
X115845771Y-95678171D02*
X115236171Y-95678171D01*
X115236171Y-95474971D02*
X115236171Y-95126628D01*
X115845771Y-95300800D02*
X115236171Y-95300800D01*
X115787714Y-94575085D02*
X115816742Y-94604114D01*
X115845771Y-94691200D01*
X115845771Y-94749257D01*
X115816742Y-94836342D01*
X115758685Y-94894400D01*
X115700628Y-94923428D01*
X115584514Y-94952457D01*
X115497428Y-94952457D01*
X115381314Y-94923428D01*
X115323257Y-94894400D01*
X115265200Y-94836342D01*
X115236171Y-94749257D01*
X115236171Y-94691200D01*
X115265200Y-94604114D01*
X115294228Y-94575085D01*
X115845771Y-94313828D02*
X115236171Y-94313828D01*
X115526457Y-94313828D02*
X115526457Y-93965485D01*
X115845771Y-93965485D02*
X115236171Y-93965485D01*
X115613542Y-93675200D02*
X115613542Y-93210742D01*
X115816742Y-92949485D02*
X115845771Y-92862400D01*
X115845771Y-92717257D01*
X115816742Y-92659200D01*
X115787714Y-92630171D01*
X115729657Y-92601142D01*
X115671600Y-92601142D01*
X115613542Y-92630171D01*
X115584514Y-92659200D01*
X115555485Y-92717257D01*
X115526457Y-92833371D01*
X115497428Y-92891428D01*
X115468400Y-92920457D01*
X115410342Y-92949485D01*
X115352285Y-92949485D01*
X115294228Y-92920457D01*
X115265200Y-92891428D01*
X115236171Y-92833371D01*
X115236171Y-92688228D01*
X115265200Y-92601142D01*
X115845771Y-92339885D02*
X115236171Y-92339885D01*
X115236171Y-92107657D01*
X115265200Y-92049600D01*
X115294228Y-92020571D01*
X115352285Y-91991542D01*
X115439371Y-91991542D01*
X115497428Y-92020571D01*
X115526457Y-92049600D01*
X115555485Y-92107657D01*
X115555485Y-92339885D01*
X115816742Y-91759314D02*
X115845771Y-91672228D01*
X115845771Y-91527085D01*
X115816742Y-91469028D01*
X115787714Y-91440000D01*
X115729657Y-91410971D01*
X115671600Y-91410971D01*
X115613542Y-91440000D01*
X115584514Y-91469028D01*
X115555485Y-91527085D01*
X115526457Y-91643200D01*
X115497428Y-91701257D01*
X115468400Y-91730285D01*
X115410342Y-91759314D01*
X115352285Y-91759314D01*
X115294228Y-91730285D01*
X115265200Y-91701257D01*
X115236171Y-91643200D01*
X115236171Y-91498057D01*
X115265200Y-91410971D01*
X115236171Y-91236800D02*
X115236171Y-90888457D01*
X115845771Y-91062628D02*
X115236171Y-91062628D01*
X115613542Y-90685257D02*
X115613542Y-90220800D01*
X115845771Y-89930514D02*
X115236171Y-89930514D01*
X115236171Y-89698285D01*
X115265200Y-89640228D01*
X115294228Y-89611200D01*
X115352285Y-89582171D01*
X115439371Y-89582171D01*
X115497428Y-89611200D01*
X115526457Y-89640228D01*
X115555485Y-89698285D01*
X115555485Y-89930514D01*
X115236171Y-89408000D02*
X115236171Y-89059657D01*
X115845771Y-89233828D02*
X115236171Y-89233828D01*
X115845771Y-88856457D02*
X115236171Y-88856457D01*
X115526457Y-88856457D02*
X115526457Y-88508114D01*
X115845771Y-88508114D02*
X115236171Y-88508114D01*
X115613542Y-88217828D02*
X115613542Y-87753371D01*
X115236171Y-87201828D02*
X115236171Y-87317942D01*
X115265200Y-87376000D01*
X115294228Y-87405028D01*
X115381314Y-87463085D01*
X115497428Y-87492114D01*
X115729657Y-87492114D01*
X115787714Y-87463085D01*
X115816742Y-87434057D01*
X115845771Y-87376000D01*
X115845771Y-87259885D01*
X115816742Y-87201828D01*
X115787714Y-87172800D01*
X115729657Y-87143771D01*
X115584514Y-87143771D01*
X115526457Y-87172800D01*
X115497428Y-87201828D01*
X115468400Y-87259885D01*
X115468400Y-87376000D01*
X115497428Y-87434057D01*
X115526457Y-87463085D01*
X115584514Y-87492114D01*
X115787714Y-86882514D02*
X115816742Y-86853485D01*
X115845771Y-86882514D01*
X115816742Y-86911542D01*
X115787714Y-86882514D01*
X115845771Y-86882514D01*
X115236171Y-86476114D02*
X115236171Y-86418057D01*
X115265200Y-86360000D01*
X115294228Y-86330971D01*
X115352285Y-86301942D01*
X115468400Y-86272914D01*
X115613542Y-86272914D01*
X115729657Y-86301942D01*
X115787714Y-86330971D01*
X115816742Y-86360000D01*
X115845771Y-86418057D01*
X115845771Y-86476114D01*
X115816742Y-86534171D01*
X115787714Y-86563200D01*
X115729657Y-86592228D01*
X115613542Y-86621257D01*
X115468400Y-86621257D01*
X115352285Y-86592228D01*
X115294228Y-86563200D01*
X115265200Y-86534171D01*
X115236171Y-86476114D01*
X115845771Y-86011657D02*
X115236171Y-86011657D01*
X115671600Y-85808457D01*
X115236171Y-85605257D01*
X115845771Y-85605257D01*
X115845771Y-85314971D02*
X115236171Y-85314971D01*
X115671600Y-85111771D01*
X115236171Y-84908571D01*
X115845771Y-84908571D01*
%TO.C,R12*%
D10*
X186042380Y-114942857D02*
X185566190Y-115276190D01*
X186042380Y-115514285D02*
X185042380Y-115514285D01*
X185042380Y-115133333D01*
X185090000Y-115038095D01*
X185137619Y-114990476D01*
X185232857Y-114942857D01*
X185375714Y-114942857D01*
X185470952Y-114990476D01*
X185518571Y-115038095D01*
X185566190Y-115133333D01*
X185566190Y-115514285D01*
X186042380Y-113990476D02*
X186042380Y-114561904D01*
X186042380Y-114276190D02*
X185042380Y-114276190D01*
X185185238Y-114371428D01*
X185280476Y-114466666D01*
X185328095Y-114561904D01*
X185137619Y-113609523D02*
X185090000Y-113561904D01*
X185042380Y-113466666D01*
X185042380Y-113228571D01*
X185090000Y-113133333D01*
X185137619Y-113085714D01*
X185232857Y-113038095D01*
X185328095Y-113038095D01*
X185470952Y-113085714D01*
X186042380Y-113657142D01*
X186042380Y-113038095D01*
%TO.C,R11*%
X168262380Y-114942857D02*
X167786190Y-115276190D01*
X168262380Y-115514285D02*
X167262380Y-115514285D01*
X167262380Y-115133333D01*
X167310000Y-115038095D01*
X167357619Y-114990476D01*
X167452857Y-114942857D01*
X167595714Y-114942857D01*
X167690952Y-114990476D01*
X167738571Y-115038095D01*
X167786190Y-115133333D01*
X167786190Y-115514285D01*
X168262380Y-113990476D02*
X168262380Y-114561904D01*
X168262380Y-114276190D02*
X167262380Y-114276190D01*
X167405238Y-114371428D01*
X167500476Y-114466666D01*
X167548095Y-114561904D01*
X168262380Y-113038095D02*
X168262380Y-113609523D01*
X168262380Y-113323809D02*
X167262380Y-113323809D01*
X167405238Y-113419047D01*
X167500476Y-113514285D01*
X167548095Y-113609523D01*
%TO.C,R10*%
X141592380Y-114942857D02*
X141116190Y-115276190D01*
X141592380Y-115514285D02*
X140592380Y-115514285D01*
X140592380Y-115133333D01*
X140640000Y-115038095D01*
X140687619Y-114990476D01*
X140782857Y-114942857D01*
X140925714Y-114942857D01*
X141020952Y-114990476D01*
X141068571Y-115038095D01*
X141116190Y-115133333D01*
X141116190Y-115514285D01*
X141592380Y-113990476D02*
X141592380Y-114561904D01*
X141592380Y-114276190D02*
X140592380Y-114276190D01*
X140735238Y-114371428D01*
X140830476Y-114466666D01*
X140878095Y-114561904D01*
X140592380Y-113371428D02*
X140592380Y-113276190D01*
X140640000Y-113180952D01*
X140687619Y-113133333D01*
X140782857Y-113085714D01*
X140973333Y-113038095D01*
X141211428Y-113038095D01*
X141401904Y-113085714D01*
X141497142Y-113133333D01*
X141544761Y-113180952D01*
X141592380Y-113276190D01*
X141592380Y-113371428D01*
X141544761Y-113466666D01*
X141497142Y-113514285D01*
X141401904Y-113561904D01*
X141211428Y-113609523D01*
X140973333Y-113609523D01*
X140782857Y-113561904D01*
X140687619Y-113514285D01*
X140640000Y-113466666D01*
X140592380Y-113371428D01*
%TO.C,R9*%
X123812380Y-114466666D02*
X123336190Y-114800000D01*
X123812380Y-115038095D02*
X122812380Y-115038095D01*
X122812380Y-114657142D01*
X122860000Y-114561904D01*
X122907619Y-114514285D01*
X123002857Y-114466666D01*
X123145714Y-114466666D01*
X123240952Y-114514285D01*
X123288571Y-114561904D01*
X123336190Y-114657142D01*
X123336190Y-115038095D01*
X123812380Y-113990476D02*
X123812380Y-113800000D01*
X123764761Y-113704761D01*
X123717142Y-113657142D01*
X123574285Y-113561904D01*
X123383809Y-113514285D01*
X123002857Y-113514285D01*
X122907619Y-113561904D01*
X122860000Y-113609523D01*
X122812380Y-113704761D01*
X122812380Y-113895238D01*
X122860000Y-113990476D01*
X122907619Y-114038095D01*
X123002857Y-114085714D01*
X123240952Y-114085714D01*
X123336190Y-114038095D01*
X123383809Y-113990476D01*
X123431428Y-113895238D01*
X123431428Y-113704761D01*
X123383809Y-113609523D01*
X123336190Y-113561904D01*
X123240952Y-113514285D01*
%TO.C,R8*%
X177152380Y-114466666D02*
X176676190Y-114800000D01*
X177152380Y-115038095D02*
X176152380Y-115038095D01*
X176152380Y-114657142D01*
X176200000Y-114561904D01*
X176247619Y-114514285D01*
X176342857Y-114466666D01*
X176485714Y-114466666D01*
X176580952Y-114514285D01*
X176628571Y-114561904D01*
X176676190Y-114657142D01*
X176676190Y-115038095D01*
X176580952Y-113895238D02*
X176533333Y-113990476D01*
X176485714Y-114038095D01*
X176390476Y-114085714D01*
X176342857Y-114085714D01*
X176247619Y-114038095D01*
X176200000Y-113990476D01*
X176152380Y-113895238D01*
X176152380Y-113704761D01*
X176200000Y-113609523D01*
X176247619Y-113561904D01*
X176342857Y-113514285D01*
X176390476Y-113514285D01*
X176485714Y-113561904D01*
X176533333Y-113609523D01*
X176580952Y-113704761D01*
X176580952Y-113895238D01*
X176628571Y-113990476D01*
X176676190Y-114038095D01*
X176771428Y-114085714D01*
X176961904Y-114085714D01*
X177057142Y-114038095D01*
X177104761Y-113990476D01*
X177152380Y-113895238D01*
X177152380Y-113704761D01*
X177104761Y-113609523D01*
X177057142Y-113561904D01*
X176961904Y-113514285D01*
X176771428Y-113514285D01*
X176676190Y-113561904D01*
X176628571Y-113609523D01*
X176580952Y-113704761D01*
%TO.C,R7*%
X159372380Y-114466666D02*
X158896190Y-114800000D01*
X159372380Y-115038095D02*
X158372380Y-115038095D01*
X158372380Y-114657142D01*
X158420000Y-114561904D01*
X158467619Y-114514285D01*
X158562857Y-114466666D01*
X158705714Y-114466666D01*
X158800952Y-114514285D01*
X158848571Y-114561904D01*
X158896190Y-114657142D01*
X158896190Y-115038095D01*
X158372380Y-114133333D02*
X158372380Y-113466666D01*
X159372380Y-113895238D01*
%TO.C,R6*%
X132702380Y-114466666D02*
X132226190Y-114800000D01*
X132702380Y-115038095D02*
X131702380Y-115038095D01*
X131702380Y-114657142D01*
X131750000Y-114561904D01*
X131797619Y-114514285D01*
X131892857Y-114466666D01*
X132035714Y-114466666D01*
X132130952Y-114514285D01*
X132178571Y-114561904D01*
X132226190Y-114657142D01*
X132226190Y-115038095D01*
X131702380Y-113609523D02*
X131702380Y-113800000D01*
X131750000Y-113895238D01*
X131797619Y-113942857D01*
X131940476Y-114038095D01*
X132130952Y-114085714D01*
X132511904Y-114085714D01*
X132607142Y-114038095D01*
X132654761Y-113990476D01*
X132702380Y-113895238D01*
X132702380Y-113704761D01*
X132654761Y-113609523D01*
X132607142Y-113561904D01*
X132511904Y-113514285D01*
X132273809Y-113514285D01*
X132178571Y-113561904D01*
X132130952Y-113609523D01*
X132083333Y-113704761D01*
X132083333Y-113895238D01*
X132130952Y-113990476D01*
X132178571Y-114038095D01*
X132273809Y-114085714D01*
%TO.C,R5*%
X114922380Y-114466666D02*
X114446190Y-114800000D01*
X114922380Y-115038095D02*
X113922380Y-115038095D01*
X113922380Y-114657142D01*
X113970000Y-114561904D01*
X114017619Y-114514285D01*
X114112857Y-114466666D01*
X114255714Y-114466666D01*
X114350952Y-114514285D01*
X114398571Y-114561904D01*
X114446190Y-114657142D01*
X114446190Y-115038095D01*
X113922380Y-113561904D02*
X113922380Y-114038095D01*
X114398571Y-114085714D01*
X114350952Y-114038095D01*
X114303333Y-113942857D01*
X114303333Y-113704761D01*
X114350952Y-113609523D01*
X114398571Y-113561904D01*
X114493809Y-113514285D01*
X114731904Y-113514285D01*
X114827142Y-113561904D01*
X114874761Y-113609523D01*
X114922380Y-113704761D01*
X114922380Y-113942857D01*
X114874761Y-114038095D01*
X114827142Y-114085714D01*
%TO.C,R4*%
X102703333Y-100952380D02*
X102370000Y-100476190D01*
X102131904Y-100952380D02*
X102131904Y-99952380D01*
X102512857Y-99952380D01*
X102608095Y-100000000D01*
X102655714Y-100047619D01*
X102703333Y-100142857D01*
X102703333Y-100285714D01*
X102655714Y-100380952D01*
X102608095Y-100428571D01*
X102512857Y-100476190D01*
X102131904Y-100476190D01*
X103560476Y-100285714D02*
X103560476Y-100952380D01*
X103322380Y-99904761D02*
X103084285Y-100619047D01*
X103703333Y-100619047D01*
%TO.C,R3*%
X201763333Y-105692380D02*
X201430000Y-105216190D01*
X201191904Y-105692380D02*
X201191904Y-104692380D01*
X201572857Y-104692380D01*
X201668095Y-104740000D01*
X201715714Y-104787619D01*
X201763333Y-104882857D01*
X201763333Y-105025714D01*
X201715714Y-105120952D01*
X201668095Y-105168571D01*
X201572857Y-105216190D01*
X201191904Y-105216190D01*
X202096666Y-104692380D02*
X202715714Y-104692380D01*
X202382380Y-105073333D01*
X202525238Y-105073333D01*
X202620476Y-105120952D01*
X202668095Y-105168571D01*
X202715714Y-105263809D01*
X202715714Y-105501904D01*
X202668095Y-105597142D01*
X202620476Y-105644761D01*
X202525238Y-105692380D01*
X202239523Y-105692380D01*
X202144285Y-105644761D01*
X202096666Y-105597142D01*
%TO.C,R2*%
X150482380Y-114466666D02*
X150006190Y-114800000D01*
X150482380Y-115038095D02*
X149482380Y-115038095D01*
X149482380Y-114657142D01*
X149530000Y-114561904D01*
X149577619Y-114514285D01*
X149672857Y-114466666D01*
X149815714Y-114466666D01*
X149910952Y-114514285D01*
X149958571Y-114561904D01*
X150006190Y-114657142D01*
X150006190Y-115038095D01*
X149577619Y-114085714D02*
X149530000Y-114038095D01*
X149482380Y-113942857D01*
X149482380Y-113704761D01*
X149530000Y-113609523D01*
X149577619Y-113561904D01*
X149672857Y-113514285D01*
X149768095Y-113514285D01*
X149910952Y-113561904D01*
X150482380Y-114133333D01*
X150482380Y-113514285D01*
%TO.C,R1*%
X126833333Y-84442380D02*
X126500000Y-83966190D01*
X126261904Y-84442380D02*
X126261904Y-83442380D01*
X126642857Y-83442380D01*
X126738095Y-83490000D01*
X126785714Y-83537619D01*
X126833333Y-83632857D01*
X126833333Y-83775714D01*
X126785714Y-83870952D01*
X126738095Y-83918571D01*
X126642857Y-83966190D01*
X126261904Y-83966190D01*
X127785714Y-84442380D02*
X127214285Y-84442380D01*
X127500000Y-84442380D02*
X127500000Y-83442380D01*
X127404761Y-83585238D01*
X127309523Y-83680476D01*
X127214285Y-83728095D01*
%TO.C,D9*%
D15*
X192045771Y-103319942D02*
X191436171Y-103319942D01*
X191436171Y-103174800D01*
X191465200Y-103087714D01*
X191523257Y-103029657D01*
X191581314Y-103000628D01*
X191697428Y-102971600D01*
X191784514Y-102971600D01*
X191900628Y-103000628D01*
X191958685Y-103029657D01*
X192016742Y-103087714D01*
X192045771Y-103174800D01*
X192045771Y-103319942D01*
X192045771Y-102681314D02*
X192045771Y-102565200D01*
X192016742Y-102507142D01*
X191987714Y-102478114D01*
X191900628Y-102420057D01*
X191784514Y-102391028D01*
X191552285Y-102391028D01*
X191494228Y-102420057D01*
X191465200Y-102449085D01*
X191436171Y-102507142D01*
X191436171Y-102623257D01*
X191465200Y-102681314D01*
X191494228Y-102710342D01*
X191552285Y-102739371D01*
X191697428Y-102739371D01*
X191755485Y-102710342D01*
X191784514Y-102681314D01*
X191813542Y-102623257D01*
X191813542Y-102507142D01*
X191784514Y-102449085D01*
X191755485Y-102420057D01*
X191697428Y-102391028D01*
X184425771Y-104248857D02*
X184425771Y-104539142D01*
X183816171Y-104539142D01*
X184106457Y-104045657D02*
X184106457Y-103842457D01*
X184425771Y-103755371D02*
X184425771Y-104045657D01*
X183816171Y-104045657D01*
X183816171Y-103755371D01*
X184425771Y-103494114D02*
X183816171Y-103494114D01*
X183816171Y-103348971D01*
X183845200Y-103261885D01*
X183903257Y-103203828D01*
X183961314Y-103174800D01*
X184077428Y-103145771D01*
X184164514Y-103145771D01*
X184280628Y-103174800D01*
X184338685Y-103203828D01*
X184396742Y-103261885D01*
X184425771Y-103348971D01*
X184425771Y-103494114D01*
X183816171Y-102594228D02*
X183816171Y-102884514D01*
X184106457Y-102913542D01*
X184077428Y-102884514D01*
X184048400Y-102826457D01*
X184048400Y-102681314D01*
X184077428Y-102623257D01*
X184106457Y-102594228D01*
X184164514Y-102565200D01*
X184309657Y-102565200D01*
X184367714Y-102594228D01*
X184396742Y-102623257D01*
X184425771Y-102681314D01*
X184425771Y-102826457D01*
X184396742Y-102884514D01*
X184367714Y-102913542D01*
X184425771Y-102303942D02*
X183816171Y-102303942D01*
X184251600Y-102100742D01*
X183816171Y-101897542D01*
X184425771Y-101897542D01*
X184425771Y-101607257D02*
X183816171Y-101607257D01*
X184251600Y-101404057D01*
X183816171Y-101200857D01*
X184425771Y-101200857D01*
%TO.C,D8*%
X174265771Y-103319942D02*
X173656171Y-103319942D01*
X173656171Y-103174800D01*
X173685200Y-103087714D01*
X173743257Y-103029657D01*
X173801314Y-103000628D01*
X173917428Y-102971600D01*
X174004514Y-102971600D01*
X174120628Y-103000628D01*
X174178685Y-103029657D01*
X174236742Y-103087714D01*
X174265771Y-103174800D01*
X174265771Y-103319942D01*
X173917428Y-102623257D02*
X173888400Y-102681314D01*
X173859371Y-102710342D01*
X173801314Y-102739371D01*
X173772285Y-102739371D01*
X173714228Y-102710342D01*
X173685200Y-102681314D01*
X173656171Y-102623257D01*
X173656171Y-102507142D01*
X173685200Y-102449085D01*
X173714228Y-102420057D01*
X173772285Y-102391028D01*
X173801314Y-102391028D01*
X173859371Y-102420057D01*
X173888400Y-102449085D01*
X173917428Y-102507142D01*
X173917428Y-102623257D01*
X173946457Y-102681314D01*
X173975485Y-102710342D01*
X174033542Y-102739371D01*
X174149657Y-102739371D01*
X174207714Y-102710342D01*
X174236742Y-102681314D01*
X174265771Y-102623257D01*
X174265771Y-102507142D01*
X174236742Y-102449085D01*
X174207714Y-102420057D01*
X174149657Y-102391028D01*
X174033542Y-102391028D01*
X173975485Y-102420057D01*
X173946457Y-102449085D01*
X173917428Y-102507142D01*
X166645771Y-104248857D02*
X166645771Y-104539142D01*
X166036171Y-104539142D01*
X166326457Y-104045657D02*
X166326457Y-103842457D01*
X166645771Y-103755371D02*
X166645771Y-104045657D01*
X166036171Y-104045657D01*
X166036171Y-103755371D01*
X166645771Y-103494114D02*
X166036171Y-103494114D01*
X166036171Y-103348971D01*
X166065200Y-103261885D01*
X166123257Y-103203828D01*
X166181314Y-103174800D01*
X166297428Y-103145771D01*
X166384514Y-103145771D01*
X166500628Y-103174800D01*
X166558685Y-103203828D01*
X166616742Y-103261885D01*
X166645771Y-103348971D01*
X166645771Y-103494114D01*
X166036171Y-102594228D02*
X166036171Y-102884514D01*
X166326457Y-102913542D01*
X166297428Y-102884514D01*
X166268400Y-102826457D01*
X166268400Y-102681314D01*
X166297428Y-102623257D01*
X166326457Y-102594228D01*
X166384514Y-102565200D01*
X166529657Y-102565200D01*
X166587714Y-102594228D01*
X166616742Y-102623257D01*
X166645771Y-102681314D01*
X166645771Y-102826457D01*
X166616742Y-102884514D01*
X166587714Y-102913542D01*
X166645771Y-102303942D02*
X166036171Y-102303942D01*
X166471600Y-102100742D01*
X166036171Y-101897542D01*
X166645771Y-101897542D01*
X166645771Y-101607257D02*
X166036171Y-101607257D01*
X166471600Y-101404057D01*
X166036171Y-101200857D01*
X166645771Y-101200857D01*
%TO.C,D7*%
X147595771Y-103319942D02*
X146986171Y-103319942D01*
X146986171Y-103174800D01*
X147015200Y-103087714D01*
X147073257Y-103029657D01*
X147131314Y-103000628D01*
X147247428Y-102971600D01*
X147334514Y-102971600D01*
X147450628Y-103000628D01*
X147508685Y-103029657D01*
X147566742Y-103087714D01*
X147595771Y-103174800D01*
X147595771Y-103319942D01*
X146986171Y-102768400D02*
X146986171Y-102362000D01*
X147595771Y-102623257D01*
X139975771Y-104248857D02*
X139975771Y-104539142D01*
X139366171Y-104539142D01*
X139656457Y-104045657D02*
X139656457Y-103842457D01*
X139975771Y-103755371D02*
X139975771Y-104045657D01*
X139366171Y-104045657D01*
X139366171Y-103755371D01*
X139975771Y-103494114D02*
X139366171Y-103494114D01*
X139366171Y-103348971D01*
X139395200Y-103261885D01*
X139453257Y-103203828D01*
X139511314Y-103174800D01*
X139627428Y-103145771D01*
X139714514Y-103145771D01*
X139830628Y-103174800D01*
X139888685Y-103203828D01*
X139946742Y-103261885D01*
X139975771Y-103348971D01*
X139975771Y-103494114D01*
X139366171Y-102594228D02*
X139366171Y-102884514D01*
X139656457Y-102913542D01*
X139627428Y-102884514D01*
X139598400Y-102826457D01*
X139598400Y-102681314D01*
X139627428Y-102623257D01*
X139656457Y-102594228D01*
X139714514Y-102565200D01*
X139859657Y-102565200D01*
X139917714Y-102594228D01*
X139946742Y-102623257D01*
X139975771Y-102681314D01*
X139975771Y-102826457D01*
X139946742Y-102884514D01*
X139917714Y-102913542D01*
X139975771Y-102303942D02*
X139366171Y-102303942D01*
X139801600Y-102100742D01*
X139366171Y-101897542D01*
X139975771Y-101897542D01*
X139975771Y-101607257D02*
X139366171Y-101607257D01*
X139801600Y-101404057D01*
X139366171Y-101200857D01*
X139975771Y-101200857D01*
%TO.C,D6*%
X129815771Y-103319942D02*
X129206171Y-103319942D01*
X129206171Y-103174800D01*
X129235200Y-103087714D01*
X129293257Y-103029657D01*
X129351314Y-103000628D01*
X129467428Y-102971600D01*
X129554514Y-102971600D01*
X129670628Y-103000628D01*
X129728685Y-103029657D01*
X129786742Y-103087714D01*
X129815771Y-103174800D01*
X129815771Y-103319942D01*
X129206171Y-102449085D02*
X129206171Y-102565200D01*
X129235200Y-102623257D01*
X129264228Y-102652285D01*
X129351314Y-102710342D01*
X129467428Y-102739371D01*
X129699657Y-102739371D01*
X129757714Y-102710342D01*
X129786742Y-102681314D01*
X129815771Y-102623257D01*
X129815771Y-102507142D01*
X129786742Y-102449085D01*
X129757714Y-102420057D01*
X129699657Y-102391028D01*
X129554514Y-102391028D01*
X129496457Y-102420057D01*
X129467428Y-102449085D01*
X129438400Y-102507142D01*
X129438400Y-102623257D01*
X129467428Y-102681314D01*
X129496457Y-102710342D01*
X129554514Y-102739371D01*
X122195771Y-104248857D02*
X122195771Y-104539142D01*
X121586171Y-104539142D01*
X121876457Y-104045657D02*
X121876457Y-103842457D01*
X122195771Y-103755371D02*
X122195771Y-104045657D01*
X121586171Y-104045657D01*
X121586171Y-103755371D01*
X122195771Y-103494114D02*
X121586171Y-103494114D01*
X121586171Y-103348971D01*
X121615200Y-103261885D01*
X121673257Y-103203828D01*
X121731314Y-103174800D01*
X121847428Y-103145771D01*
X121934514Y-103145771D01*
X122050628Y-103174800D01*
X122108685Y-103203828D01*
X122166742Y-103261885D01*
X122195771Y-103348971D01*
X122195771Y-103494114D01*
X121586171Y-102594228D02*
X121586171Y-102884514D01*
X121876457Y-102913542D01*
X121847428Y-102884514D01*
X121818400Y-102826457D01*
X121818400Y-102681314D01*
X121847428Y-102623257D01*
X121876457Y-102594228D01*
X121934514Y-102565200D01*
X122079657Y-102565200D01*
X122137714Y-102594228D01*
X122166742Y-102623257D01*
X122195771Y-102681314D01*
X122195771Y-102826457D01*
X122166742Y-102884514D01*
X122137714Y-102913542D01*
X122195771Y-102303942D02*
X121586171Y-102303942D01*
X122021600Y-102100742D01*
X121586171Y-101897542D01*
X122195771Y-101897542D01*
X122195771Y-101607257D02*
X121586171Y-101607257D01*
X122021600Y-101404057D01*
X121586171Y-101200857D01*
X122195771Y-101200857D01*
%TO.C,D5*%
X183155771Y-103319942D02*
X182546171Y-103319942D01*
X182546171Y-103174800D01*
X182575200Y-103087714D01*
X182633257Y-103029657D01*
X182691314Y-103000628D01*
X182807428Y-102971600D01*
X182894514Y-102971600D01*
X183010628Y-103000628D01*
X183068685Y-103029657D01*
X183126742Y-103087714D01*
X183155771Y-103174800D01*
X183155771Y-103319942D01*
X182546171Y-102420057D02*
X182546171Y-102710342D01*
X182836457Y-102739371D01*
X182807428Y-102710342D01*
X182778400Y-102652285D01*
X182778400Y-102507142D01*
X182807428Y-102449085D01*
X182836457Y-102420057D01*
X182894514Y-102391028D01*
X183039657Y-102391028D01*
X183097714Y-102420057D01*
X183126742Y-102449085D01*
X183155771Y-102507142D01*
X183155771Y-102652285D01*
X183126742Y-102710342D01*
X183097714Y-102739371D01*
X175535771Y-104248857D02*
X175535771Y-104539142D01*
X174926171Y-104539142D01*
X175216457Y-104045657D02*
X175216457Y-103842457D01*
X175535771Y-103755371D02*
X175535771Y-104045657D01*
X174926171Y-104045657D01*
X174926171Y-103755371D01*
X175535771Y-103494114D02*
X174926171Y-103494114D01*
X174926171Y-103348971D01*
X174955200Y-103261885D01*
X175013257Y-103203828D01*
X175071314Y-103174800D01*
X175187428Y-103145771D01*
X175274514Y-103145771D01*
X175390628Y-103174800D01*
X175448685Y-103203828D01*
X175506742Y-103261885D01*
X175535771Y-103348971D01*
X175535771Y-103494114D01*
X174926171Y-102594228D02*
X174926171Y-102884514D01*
X175216457Y-102913542D01*
X175187428Y-102884514D01*
X175158400Y-102826457D01*
X175158400Y-102681314D01*
X175187428Y-102623257D01*
X175216457Y-102594228D01*
X175274514Y-102565200D01*
X175419657Y-102565200D01*
X175477714Y-102594228D01*
X175506742Y-102623257D01*
X175535771Y-102681314D01*
X175535771Y-102826457D01*
X175506742Y-102884514D01*
X175477714Y-102913542D01*
X175535771Y-102303942D02*
X174926171Y-102303942D01*
X175361600Y-102100742D01*
X174926171Y-101897542D01*
X175535771Y-101897542D01*
X175535771Y-101607257D02*
X174926171Y-101607257D01*
X175361600Y-101404057D01*
X174926171Y-101200857D01*
X175535771Y-101200857D01*
%TO.C,D4*%
X165375771Y-103319942D02*
X164766171Y-103319942D01*
X164766171Y-103174800D01*
X164795200Y-103087714D01*
X164853257Y-103029657D01*
X164911314Y-103000628D01*
X165027428Y-102971600D01*
X165114514Y-102971600D01*
X165230628Y-103000628D01*
X165288685Y-103029657D01*
X165346742Y-103087714D01*
X165375771Y-103174800D01*
X165375771Y-103319942D01*
X164969371Y-102449085D02*
X165375771Y-102449085D01*
X164737142Y-102594228D02*
X165172571Y-102739371D01*
X165172571Y-102362000D01*
X157755771Y-104248857D02*
X157755771Y-104539142D01*
X157146171Y-104539142D01*
X157436457Y-104045657D02*
X157436457Y-103842457D01*
X157755771Y-103755371D02*
X157755771Y-104045657D01*
X157146171Y-104045657D01*
X157146171Y-103755371D01*
X157755771Y-103494114D02*
X157146171Y-103494114D01*
X157146171Y-103348971D01*
X157175200Y-103261885D01*
X157233257Y-103203828D01*
X157291314Y-103174800D01*
X157407428Y-103145771D01*
X157494514Y-103145771D01*
X157610628Y-103174800D01*
X157668685Y-103203828D01*
X157726742Y-103261885D01*
X157755771Y-103348971D01*
X157755771Y-103494114D01*
X157146171Y-102594228D02*
X157146171Y-102884514D01*
X157436457Y-102913542D01*
X157407428Y-102884514D01*
X157378400Y-102826457D01*
X157378400Y-102681314D01*
X157407428Y-102623257D01*
X157436457Y-102594228D01*
X157494514Y-102565200D01*
X157639657Y-102565200D01*
X157697714Y-102594228D01*
X157726742Y-102623257D01*
X157755771Y-102681314D01*
X157755771Y-102826457D01*
X157726742Y-102884514D01*
X157697714Y-102913542D01*
X157755771Y-102303942D02*
X157146171Y-102303942D01*
X157581600Y-102100742D01*
X157146171Y-101897542D01*
X157755771Y-101897542D01*
X157755771Y-101607257D02*
X157146171Y-101607257D01*
X157581600Y-101404057D01*
X157146171Y-101200857D01*
X157755771Y-101200857D01*
%TO.C,D3*%
X138705771Y-103319942D02*
X138096171Y-103319942D01*
X138096171Y-103174800D01*
X138125200Y-103087714D01*
X138183257Y-103029657D01*
X138241314Y-103000628D01*
X138357428Y-102971600D01*
X138444514Y-102971600D01*
X138560628Y-103000628D01*
X138618685Y-103029657D01*
X138676742Y-103087714D01*
X138705771Y-103174800D01*
X138705771Y-103319942D01*
X138096171Y-102768400D02*
X138096171Y-102391028D01*
X138328400Y-102594228D01*
X138328400Y-102507142D01*
X138357428Y-102449085D01*
X138386457Y-102420057D01*
X138444514Y-102391028D01*
X138589657Y-102391028D01*
X138647714Y-102420057D01*
X138676742Y-102449085D01*
X138705771Y-102507142D01*
X138705771Y-102681314D01*
X138676742Y-102739371D01*
X138647714Y-102768400D01*
X131085771Y-104248857D02*
X131085771Y-104539142D01*
X130476171Y-104539142D01*
X130766457Y-104045657D02*
X130766457Y-103842457D01*
X131085771Y-103755371D02*
X131085771Y-104045657D01*
X130476171Y-104045657D01*
X130476171Y-103755371D01*
X131085771Y-103494114D02*
X130476171Y-103494114D01*
X130476171Y-103348971D01*
X130505200Y-103261885D01*
X130563257Y-103203828D01*
X130621314Y-103174800D01*
X130737428Y-103145771D01*
X130824514Y-103145771D01*
X130940628Y-103174800D01*
X130998685Y-103203828D01*
X131056742Y-103261885D01*
X131085771Y-103348971D01*
X131085771Y-103494114D01*
X130476171Y-102594228D02*
X130476171Y-102884514D01*
X130766457Y-102913542D01*
X130737428Y-102884514D01*
X130708400Y-102826457D01*
X130708400Y-102681314D01*
X130737428Y-102623257D01*
X130766457Y-102594228D01*
X130824514Y-102565200D01*
X130969657Y-102565200D01*
X131027714Y-102594228D01*
X131056742Y-102623257D01*
X131085771Y-102681314D01*
X131085771Y-102826457D01*
X131056742Y-102884514D01*
X131027714Y-102913542D01*
X131085771Y-102303942D02*
X130476171Y-102303942D01*
X130911600Y-102100742D01*
X130476171Y-101897542D01*
X131085771Y-101897542D01*
X131085771Y-101607257D02*
X130476171Y-101607257D01*
X130911600Y-101404057D01*
X130476171Y-101200857D01*
X131085771Y-101200857D01*
%TO.C,D2*%
X120925771Y-103319942D02*
X120316171Y-103319942D01*
X120316171Y-103174800D01*
X120345200Y-103087714D01*
X120403257Y-103029657D01*
X120461314Y-103000628D01*
X120577428Y-102971600D01*
X120664514Y-102971600D01*
X120780628Y-103000628D01*
X120838685Y-103029657D01*
X120896742Y-103087714D01*
X120925771Y-103174800D01*
X120925771Y-103319942D01*
X120374228Y-102739371D02*
X120345200Y-102710342D01*
X120316171Y-102652285D01*
X120316171Y-102507142D01*
X120345200Y-102449085D01*
X120374228Y-102420057D01*
X120432285Y-102391028D01*
X120490342Y-102391028D01*
X120577428Y-102420057D01*
X120925771Y-102768400D01*
X120925771Y-102391028D01*
X113305771Y-104248857D02*
X113305771Y-104539142D01*
X112696171Y-104539142D01*
X112986457Y-104045657D02*
X112986457Y-103842457D01*
X113305771Y-103755371D02*
X113305771Y-104045657D01*
X112696171Y-104045657D01*
X112696171Y-103755371D01*
X113305771Y-103494114D02*
X112696171Y-103494114D01*
X112696171Y-103348971D01*
X112725200Y-103261885D01*
X112783257Y-103203828D01*
X112841314Y-103174800D01*
X112957428Y-103145771D01*
X113044514Y-103145771D01*
X113160628Y-103174800D01*
X113218685Y-103203828D01*
X113276742Y-103261885D01*
X113305771Y-103348971D01*
X113305771Y-103494114D01*
X112696171Y-102594228D02*
X112696171Y-102884514D01*
X112986457Y-102913542D01*
X112957428Y-102884514D01*
X112928400Y-102826457D01*
X112928400Y-102681314D01*
X112957428Y-102623257D01*
X112986457Y-102594228D01*
X113044514Y-102565200D01*
X113189657Y-102565200D01*
X113247714Y-102594228D01*
X113276742Y-102623257D01*
X113305771Y-102681314D01*
X113305771Y-102826457D01*
X113276742Y-102884514D01*
X113247714Y-102913542D01*
X113305771Y-102303942D02*
X112696171Y-102303942D01*
X113131600Y-102100742D01*
X112696171Y-101897542D01*
X113305771Y-101897542D01*
X113305771Y-101607257D02*
X112696171Y-101607257D01*
X113131600Y-101404057D01*
X112696171Y-101200857D01*
X113305771Y-101200857D01*
%TO.C,D1*%
X156485771Y-103319942D02*
X155876171Y-103319942D01*
X155876171Y-103174800D01*
X155905200Y-103087714D01*
X155963257Y-103029657D01*
X156021314Y-103000628D01*
X156137428Y-102971600D01*
X156224514Y-102971600D01*
X156340628Y-103000628D01*
X156398685Y-103029657D01*
X156456742Y-103087714D01*
X156485771Y-103174800D01*
X156485771Y-103319942D01*
X156485771Y-102391028D02*
X156485771Y-102739371D01*
X156485771Y-102565200D02*
X155876171Y-102565200D01*
X155963257Y-102623257D01*
X156021314Y-102681314D01*
X156050342Y-102739371D01*
X148865771Y-104248857D02*
X148865771Y-104539142D01*
X148256171Y-104539142D01*
X148546457Y-104045657D02*
X148546457Y-103842457D01*
X148865771Y-103755371D02*
X148865771Y-104045657D01*
X148256171Y-104045657D01*
X148256171Y-103755371D01*
X148865771Y-103494114D02*
X148256171Y-103494114D01*
X148256171Y-103348971D01*
X148285200Y-103261885D01*
X148343257Y-103203828D01*
X148401314Y-103174800D01*
X148517428Y-103145771D01*
X148604514Y-103145771D01*
X148720628Y-103174800D01*
X148778685Y-103203828D01*
X148836742Y-103261885D01*
X148865771Y-103348971D01*
X148865771Y-103494114D01*
X148256171Y-102594228D02*
X148256171Y-102884514D01*
X148546457Y-102913542D01*
X148517428Y-102884514D01*
X148488400Y-102826457D01*
X148488400Y-102681314D01*
X148517428Y-102623257D01*
X148546457Y-102594228D01*
X148604514Y-102565200D01*
X148749657Y-102565200D01*
X148807714Y-102594228D01*
X148836742Y-102623257D01*
X148865771Y-102681314D01*
X148865771Y-102826457D01*
X148836742Y-102884514D01*
X148807714Y-102913542D01*
X148865771Y-102303942D02*
X148256171Y-102303942D01*
X148691600Y-102100742D01*
X148256171Y-101897542D01*
X148865771Y-101897542D01*
X148865771Y-101607257D02*
X148256171Y-101607257D01*
X148691600Y-101404057D01*
X148256171Y-101200857D01*
X148865771Y-101200857D01*
%TO.C,C4*%
X166587714Y-91541600D02*
X166616742Y-91570628D01*
X166645771Y-91657714D01*
X166645771Y-91715771D01*
X166616742Y-91802857D01*
X166558685Y-91860914D01*
X166500628Y-91889942D01*
X166384514Y-91918971D01*
X166297428Y-91918971D01*
X166181314Y-91889942D01*
X166123257Y-91860914D01*
X166065200Y-91802857D01*
X166036171Y-91715771D01*
X166036171Y-91657714D01*
X166065200Y-91570628D01*
X166094228Y-91541600D01*
X166239371Y-91019085D02*
X166645771Y-91019085D01*
X166007142Y-91164228D02*
X166442571Y-91309371D01*
X166442571Y-90932000D01*
X169185771Y-98508457D02*
X169185771Y-98856800D01*
X169185771Y-98682628D02*
X168576171Y-98682628D01*
X168663257Y-98740685D01*
X168721314Y-98798742D01*
X168750342Y-98856800D01*
X168576171Y-98131085D02*
X168576171Y-98073028D01*
X168605200Y-98014971D01*
X168634228Y-97985942D01*
X168692285Y-97956914D01*
X168808400Y-97927885D01*
X168953542Y-97927885D01*
X169069657Y-97956914D01*
X169127714Y-97985942D01*
X169156742Y-98014971D01*
X169185771Y-98073028D01*
X169185771Y-98131085D01*
X169156742Y-98189142D01*
X169127714Y-98218171D01*
X169069657Y-98247200D01*
X168953542Y-98276228D01*
X168808400Y-98276228D01*
X168692285Y-98247200D01*
X168634228Y-98218171D01*
X168605200Y-98189142D01*
X168576171Y-98131085D01*
X169185771Y-97666628D02*
X168576171Y-97666628D01*
X169185771Y-97318285D01*
X168576171Y-97318285D01*
X168866457Y-96824800D02*
X168866457Y-97028000D01*
X169185771Y-97028000D02*
X168576171Y-97028000D01*
X168576171Y-96737714D01*
X168953542Y-96505485D02*
X168953542Y-96041028D01*
X169185771Y-95750742D02*
X168576171Y-95750742D01*
X168576171Y-95518514D01*
X168605200Y-95460457D01*
X168634228Y-95431428D01*
X168692285Y-95402400D01*
X168779371Y-95402400D01*
X168837428Y-95431428D01*
X168866457Y-95460457D01*
X168895485Y-95518514D01*
X168895485Y-95750742D01*
X168576171Y-95228228D02*
X168576171Y-94879885D01*
X169185771Y-95054057D02*
X168576171Y-95054057D01*
X169185771Y-94676685D02*
X168576171Y-94676685D01*
X168866457Y-94676685D02*
X168866457Y-94328342D01*
X169185771Y-94328342D02*
X168576171Y-94328342D01*
X168953542Y-94038057D02*
X168953542Y-93573600D01*
X169185771Y-92964000D02*
X169185771Y-93312342D01*
X169185771Y-93138171D02*
X168576171Y-93138171D01*
X168663257Y-93196228D01*
X168721314Y-93254285D01*
X168750342Y-93312342D01*
X168576171Y-92586628D02*
X168576171Y-92528571D01*
X168605200Y-92470514D01*
X168634228Y-92441485D01*
X168692285Y-92412457D01*
X168808400Y-92383428D01*
X168953542Y-92383428D01*
X169069657Y-92412457D01*
X169127714Y-92441485D01*
X169156742Y-92470514D01*
X169185771Y-92528571D01*
X169185771Y-92586628D01*
X169156742Y-92644685D01*
X169127714Y-92673714D01*
X169069657Y-92702742D01*
X168953542Y-92731771D01*
X168808400Y-92731771D01*
X168692285Y-92702742D01*
X168634228Y-92673714D01*
X168605200Y-92644685D01*
X168576171Y-92586628D01*
X169185771Y-92122171D02*
X168576171Y-92122171D01*
X169011600Y-91918971D01*
X168576171Y-91715771D01*
X169185771Y-91715771D01*
X169185771Y-91425485D02*
X168576171Y-91425485D01*
X169011600Y-91222285D01*
X168576171Y-91019085D01*
X169185771Y-91019085D01*
X168953542Y-90728800D02*
X168953542Y-90264342D01*
X169185771Y-89654742D02*
X169185771Y-90003085D01*
X169185771Y-89828914D02*
X168576171Y-89828914D01*
X168663257Y-89886971D01*
X168721314Y-89945028D01*
X168750342Y-90003085D01*
X168576171Y-89277371D02*
X168576171Y-89219314D01*
X168605200Y-89161257D01*
X168634228Y-89132228D01*
X168692285Y-89103200D01*
X168808400Y-89074171D01*
X168953542Y-89074171D01*
X169069657Y-89103200D01*
X169127714Y-89132228D01*
X169156742Y-89161257D01*
X169185771Y-89219314D01*
X169185771Y-89277371D01*
X169156742Y-89335428D01*
X169127714Y-89364457D01*
X169069657Y-89393485D01*
X168953542Y-89422514D01*
X168808400Y-89422514D01*
X168692285Y-89393485D01*
X168634228Y-89364457D01*
X168605200Y-89335428D01*
X168576171Y-89277371D01*
X168576171Y-88696800D02*
X168576171Y-88638742D01*
X168605200Y-88580685D01*
X168634228Y-88551657D01*
X168692285Y-88522628D01*
X168808400Y-88493600D01*
X168953542Y-88493600D01*
X169069657Y-88522628D01*
X169127714Y-88551657D01*
X169156742Y-88580685D01*
X169185771Y-88638742D01*
X169185771Y-88696800D01*
X169156742Y-88754857D01*
X169127714Y-88783885D01*
X169069657Y-88812914D01*
X168953542Y-88841942D01*
X168808400Y-88841942D01*
X168692285Y-88812914D01*
X168634228Y-88783885D01*
X168605200Y-88754857D01*
X168576171Y-88696800D01*
X168576171Y-88116228D02*
X168576171Y-88058171D01*
X168605200Y-88000114D01*
X168634228Y-87971085D01*
X168692285Y-87942057D01*
X168808400Y-87913028D01*
X168953542Y-87913028D01*
X169069657Y-87942057D01*
X169127714Y-87971085D01*
X169156742Y-88000114D01*
X169185771Y-88058171D01*
X169185771Y-88116228D01*
X169156742Y-88174285D01*
X169127714Y-88203314D01*
X169069657Y-88232342D01*
X168953542Y-88261371D01*
X168808400Y-88261371D01*
X168692285Y-88232342D01*
X168634228Y-88203314D01*
X168605200Y-88174285D01*
X168576171Y-88116228D01*
X168576171Y-87535657D02*
X168576171Y-87477600D01*
X168605200Y-87419542D01*
X168634228Y-87390514D01*
X168692285Y-87361485D01*
X168808400Y-87332457D01*
X168953542Y-87332457D01*
X169069657Y-87361485D01*
X169127714Y-87390514D01*
X169156742Y-87419542D01*
X169185771Y-87477600D01*
X169185771Y-87535657D01*
X169156742Y-87593714D01*
X169127714Y-87622742D01*
X169069657Y-87651771D01*
X168953542Y-87680800D01*
X168808400Y-87680800D01*
X168692285Y-87651771D01*
X168634228Y-87622742D01*
X168605200Y-87593714D01*
X168576171Y-87535657D01*
X168576171Y-87158285D02*
X169185771Y-86955085D01*
X168576171Y-86751885D01*
X168953542Y-86548685D02*
X168953542Y-86084228D01*
X169185771Y-85474628D02*
X169185771Y-85822971D01*
X169185771Y-85648800D02*
X168576171Y-85648800D01*
X168663257Y-85706857D01*
X168721314Y-85764914D01*
X168750342Y-85822971D01*
X168953542Y-85213371D02*
X168953542Y-84748914D01*
X169185771Y-84487657D02*
X168576171Y-84023200D01*
X168576171Y-84400571D02*
X168605200Y-84342514D01*
X168663257Y-84313485D01*
X168721314Y-84342514D01*
X168750342Y-84400571D01*
X168721314Y-84458628D01*
X168663257Y-84487657D01*
X168605200Y-84458628D01*
X168576171Y-84400571D01*
X169156742Y-84052228D02*
X169098685Y-84023200D01*
X169040628Y-84052228D01*
X169011600Y-84110285D01*
X169040628Y-84168342D01*
X169098685Y-84197371D01*
X169156742Y-84168342D01*
X169185771Y-84110285D01*
X169156742Y-84052228D01*
%TO.C,C3*%
X159018514Y-86461600D02*
X159047542Y-86490628D01*
X159076571Y-86577714D01*
X159076571Y-86635771D01*
X159047542Y-86722857D01*
X158989485Y-86780914D01*
X158931428Y-86809942D01*
X158815314Y-86838971D01*
X158728228Y-86838971D01*
X158612114Y-86809942D01*
X158554057Y-86780914D01*
X158496000Y-86722857D01*
X158466971Y-86635771D01*
X158466971Y-86577714D01*
X158496000Y-86490628D01*
X158525028Y-86461600D01*
X158466971Y-86258400D02*
X158466971Y-85881028D01*
X158699200Y-86084228D01*
X158699200Y-85997142D01*
X158728228Y-85939085D01*
X158757257Y-85910057D01*
X158815314Y-85881028D01*
X158960457Y-85881028D01*
X159018514Y-85910057D01*
X159047542Y-85939085D01*
X159076571Y-85997142D01*
X159076571Y-86171314D01*
X159047542Y-86229371D01*
X159018514Y-86258400D01*
X150600228Y-83544228D02*
X150629257Y-83515200D01*
X150687314Y-83486171D01*
X150832457Y-83486171D01*
X150890514Y-83515200D01*
X150919542Y-83544228D01*
X150948571Y-83602285D01*
X150948571Y-83660342D01*
X150919542Y-83747428D01*
X150571200Y-84095771D01*
X150948571Y-84095771D01*
X151180800Y-83544228D02*
X151209828Y-83515200D01*
X151267885Y-83486171D01*
X151413028Y-83486171D01*
X151471085Y-83515200D01*
X151500114Y-83544228D01*
X151529142Y-83602285D01*
X151529142Y-83660342D01*
X151500114Y-83747428D01*
X151151771Y-84095771D01*
X151529142Y-84095771D01*
X151790400Y-84095771D02*
X151790400Y-83486171D01*
X152022628Y-83486171D01*
X152080685Y-83515200D01*
X152109714Y-83544228D01*
X152138742Y-83602285D01*
X152138742Y-83689371D01*
X152109714Y-83747428D01*
X152080685Y-83776457D01*
X152022628Y-83805485D01*
X151790400Y-83805485D01*
X152603200Y-83776457D02*
X152400000Y-83776457D01*
X152400000Y-84095771D02*
X152400000Y-83486171D01*
X152690285Y-83486171D01*
X152922514Y-83863542D02*
X153386971Y-83863542D01*
X153677257Y-84095771D02*
X153677257Y-83486171D01*
X153909485Y-83486171D01*
X153967542Y-83515200D01*
X153996571Y-83544228D01*
X154025600Y-83602285D01*
X154025600Y-83689371D01*
X153996571Y-83747428D01*
X153967542Y-83776457D01*
X153909485Y-83805485D01*
X153677257Y-83805485D01*
X154199771Y-83486171D02*
X154548114Y-83486171D01*
X154373942Y-84095771D02*
X154373942Y-83486171D01*
X154751314Y-84095771D02*
X154751314Y-83486171D01*
X154751314Y-83776457D02*
X155099657Y-83776457D01*
X155099657Y-84095771D02*
X155099657Y-83486171D01*
X155389942Y-83863542D02*
X155854400Y-83863542D01*
X156115657Y-83544228D02*
X156144685Y-83515200D01*
X156202742Y-83486171D01*
X156347885Y-83486171D01*
X156405942Y-83515200D01*
X156434971Y-83544228D01*
X156464000Y-83602285D01*
X156464000Y-83660342D01*
X156434971Y-83747428D01*
X156086628Y-84095771D01*
X156464000Y-84095771D01*
X156725257Y-84037714D02*
X156754285Y-84066742D01*
X156725257Y-84095771D01*
X156696228Y-84066742D01*
X156725257Y-84037714D01*
X156725257Y-84095771D01*
X157305828Y-83486171D02*
X157015542Y-83486171D01*
X156986514Y-83776457D01*
X157015542Y-83747428D01*
X157073600Y-83718400D01*
X157218742Y-83718400D01*
X157276800Y-83747428D01*
X157305828Y-83776457D01*
X157334857Y-83834514D01*
X157334857Y-83979657D01*
X157305828Y-84037714D01*
X157276800Y-84066742D01*
X157218742Y-84095771D01*
X157073600Y-84095771D01*
X157015542Y-84066742D01*
X156986514Y-84037714D01*
X157857371Y-83689371D02*
X157857371Y-84095771D01*
X157712228Y-83457142D02*
X157567085Y-83892571D01*
X157944457Y-83892571D01*
X158176685Y-84095771D02*
X158176685Y-83486171D01*
X158379885Y-83921600D01*
X158583085Y-83486171D01*
X158583085Y-84095771D01*
X158873371Y-84095771D02*
X158873371Y-83486171D01*
X159076571Y-83921600D01*
X159279771Y-83486171D01*
X159279771Y-84095771D01*
X159570057Y-83863542D02*
X160034514Y-83863542D01*
X160295771Y-83544228D02*
X160324800Y-83515200D01*
X160382857Y-83486171D01*
X160528000Y-83486171D01*
X160586057Y-83515200D01*
X160615085Y-83544228D01*
X160644114Y-83602285D01*
X160644114Y-83660342D01*
X160615085Y-83747428D01*
X160266742Y-84095771D01*
X160644114Y-84095771D01*
X161021485Y-83486171D02*
X161079542Y-83486171D01*
X161137600Y-83515200D01*
X161166628Y-83544228D01*
X161195657Y-83602285D01*
X161224685Y-83718400D01*
X161224685Y-83863542D01*
X161195657Y-83979657D01*
X161166628Y-84037714D01*
X161137600Y-84066742D01*
X161079542Y-84095771D01*
X161021485Y-84095771D01*
X160963428Y-84066742D01*
X160934400Y-84037714D01*
X160905371Y-83979657D01*
X160876342Y-83863542D01*
X160876342Y-83718400D01*
X160905371Y-83602285D01*
X160934400Y-83544228D01*
X160963428Y-83515200D01*
X161021485Y-83486171D01*
X161602057Y-83486171D02*
X161660114Y-83486171D01*
X161718171Y-83515200D01*
X161747200Y-83544228D01*
X161776228Y-83602285D01*
X161805257Y-83718400D01*
X161805257Y-83863542D01*
X161776228Y-83979657D01*
X161747200Y-84037714D01*
X161718171Y-84066742D01*
X161660114Y-84095771D01*
X161602057Y-84095771D01*
X161544000Y-84066742D01*
X161514971Y-84037714D01*
X161485942Y-83979657D01*
X161456914Y-83863542D01*
X161456914Y-83718400D01*
X161485942Y-83602285D01*
X161514971Y-83544228D01*
X161544000Y-83515200D01*
X161602057Y-83486171D01*
X161979428Y-83486171D02*
X162182628Y-84095771D01*
X162385828Y-83486171D01*
X162589028Y-83863542D02*
X163053485Y-83863542D01*
X163634057Y-83486171D02*
X163343771Y-83486171D01*
X163314742Y-83776457D01*
X163343771Y-83747428D01*
X163401828Y-83718400D01*
X163546971Y-83718400D01*
X163605028Y-83747428D01*
X163634057Y-83776457D01*
X163663085Y-83834514D01*
X163663085Y-83979657D01*
X163634057Y-84037714D01*
X163605028Y-84066742D01*
X163546971Y-84095771D01*
X163401828Y-84095771D01*
X163343771Y-84066742D01*
X163314742Y-84037714D01*
X163895314Y-84095771D02*
X164359771Y-83486171D01*
X163982400Y-83486171D02*
X164040457Y-83515200D01*
X164069485Y-83573257D01*
X164040457Y-83631314D01*
X163982400Y-83660342D01*
X163924342Y-83631314D01*
X163895314Y-83573257D01*
X163924342Y-83515200D01*
X163982400Y-83486171D01*
X164330742Y-84066742D02*
X164359771Y-84008685D01*
X164330742Y-83950628D01*
X164272685Y-83921600D01*
X164214628Y-83950628D01*
X164185600Y-84008685D01*
X164214628Y-84066742D01*
X164272685Y-84095771D01*
X164330742Y-84066742D01*
%TO.C,C2*%
X152668514Y-86461600D02*
X152697542Y-86490628D01*
X152726571Y-86577714D01*
X152726571Y-86635771D01*
X152697542Y-86722857D01*
X152639485Y-86780914D01*
X152581428Y-86809942D01*
X152465314Y-86838971D01*
X152378228Y-86838971D01*
X152262114Y-86809942D01*
X152204057Y-86780914D01*
X152146000Y-86722857D01*
X152116971Y-86635771D01*
X152116971Y-86577714D01*
X152146000Y-86490628D01*
X152175028Y-86461600D01*
X152175028Y-86229371D02*
X152146000Y-86200342D01*
X152116971Y-86142285D01*
X152116971Y-85997142D01*
X152146000Y-85939085D01*
X152175028Y-85910057D01*
X152233085Y-85881028D01*
X152291142Y-85881028D01*
X152378228Y-85910057D01*
X152726571Y-86258400D01*
X152726571Y-85881028D01*
%TO.C,C1*%
X188177714Y-91541600D02*
X188206742Y-91570628D01*
X188235771Y-91657714D01*
X188235771Y-91715771D01*
X188206742Y-91802857D01*
X188148685Y-91860914D01*
X188090628Y-91889942D01*
X187974514Y-91918971D01*
X187887428Y-91918971D01*
X187771314Y-91889942D01*
X187713257Y-91860914D01*
X187655200Y-91802857D01*
X187626171Y-91715771D01*
X187626171Y-91657714D01*
X187655200Y-91570628D01*
X187684228Y-91541600D01*
X188235771Y-90961028D02*
X188235771Y-91309371D01*
X188235771Y-91135200D02*
X187626171Y-91135200D01*
X187713257Y-91193257D01*
X187771314Y-91251314D01*
X187800342Y-91309371D01*
X190775771Y-98508457D02*
X190775771Y-98856800D01*
X190775771Y-98682628D02*
X190166171Y-98682628D01*
X190253257Y-98740685D01*
X190311314Y-98798742D01*
X190340342Y-98856800D01*
X190166171Y-98131085D02*
X190166171Y-98073028D01*
X190195200Y-98014971D01*
X190224228Y-97985942D01*
X190282285Y-97956914D01*
X190398400Y-97927885D01*
X190543542Y-97927885D01*
X190659657Y-97956914D01*
X190717714Y-97985942D01*
X190746742Y-98014971D01*
X190775771Y-98073028D01*
X190775771Y-98131085D01*
X190746742Y-98189142D01*
X190717714Y-98218171D01*
X190659657Y-98247200D01*
X190543542Y-98276228D01*
X190398400Y-98276228D01*
X190282285Y-98247200D01*
X190224228Y-98218171D01*
X190195200Y-98189142D01*
X190166171Y-98131085D01*
X190775771Y-97666628D02*
X190166171Y-97666628D01*
X190775771Y-97318285D01*
X190166171Y-97318285D01*
X190456457Y-96824800D02*
X190456457Y-97028000D01*
X190775771Y-97028000D02*
X190166171Y-97028000D01*
X190166171Y-96737714D01*
X190543542Y-96505485D02*
X190543542Y-96041028D01*
X190775771Y-95750742D02*
X190166171Y-95750742D01*
X190166171Y-95518514D01*
X190195200Y-95460457D01*
X190224228Y-95431428D01*
X190282285Y-95402400D01*
X190369371Y-95402400D01*
X190427428Y-95431428D01*
X190456457Y-95460457D01*
X190485485Y-95518514D01*
X190485485Y-95750742D01*
X190166171Y-95228228D02*
X190166171Y-94879885D01*
X190775771Y-95054057D02*
X190166171Y-95054057D01*
X190775771Y-94676685D02*
X190166171Y-94676685D01*
X190456457Y-94676685D02*
X190456457Y-94328342D01*
X190775771Y-94328342D02*
X190166171Y-94328342D01*
X190543542Y-94038057D02*
X190543542Y-93573600D01*
X190775771Y-92964000D02*
X190775771Y-93312342D01*
X190775771Y-93138171D02*
X190166171Y-93138171D01*
X190253257Y-93196228D01*
X190311314Y-93254285D01*
X190340342Y-93312342D01*
X190166171Y-92586628D02*
X190166171Y-92528571D01*
X190195200Y-92470514D01*
X190224228Y-92441485D01*
X190282285Y-92412457D01*
X190398400Y-92383428D01*
X190543542Y-92383428D01*
X190659657Y-92412457D01*
X190717714Y-92441485D01*
X190746742Y-92470514D01*
X190775771Y-92528571D01*
X190775771Y-92586628D01*
X190746742Y-92644685D01*
X190717714Y-92673714D01*
X190659657Y-92702742D01*
X190543542Y-92731771D01*
X190398400Y-92731771D01*
X190282285Y-92702742D01*
X190224228Y-92673714D01*
X190195200Y-92644685D01*
X190166171Y-92586628D01*
X190775771Y-92122171D02*
X190166171Y-92122171D01*
X190601600Y-91918971D01*
X190166171Y-91715771D01*
X190775771Y-91715771D01*
X190775771Y-91425485D02*
X190166171Y-91425485D01*
X190601600Y-91222285D01*
X190166171Y-91019085D01*
X190775771Y-91019085D01*
X190543542Y-90728800D02*
X190543542Y-90264342D01*
X190775771Y-89654742D02*
X190775771Y-90003085D01*
X190775771Y-89828914D02*
X190166171Y-89828914D01*
X190253257Y-89886971D01*
X190311314Y-89945028D01*
X190340342Y-90003085D01*
X190166171Y-89277371D02*
X190166171Y-89219314D01*
X190195200Y-89161257D01*
X190224228Y-89132228D01*
X190282285Y-89103200D01*
X190398400Y-89074171D01*
X190543542Y-89074171D01*
X190659657Y-89103200D01*
X190717714Y-89132228D01*
X190746742Y-89161257D01*
X190775771Y-89219314D01*
X190775771Y-89277371D01*
X190746742Y-89335428D01*
X190717714Y-89364457D01*
X190659657Y-89393485D01*
X190543542Y-89422514D01*
X190398400Y-89422514D01*
X190282285Y-89393485D01*
X190224228Y-89364457D01*
X190195200Y-89335428D01*
X190166171Y-89277371D01*
X190166171Y-88696800D02*
X190166171Y-88638742D01*
X190195200Y-88580685D01*
X190224228Y-88551657D01*
X190282285Y-88522628D01*
X190398400Y-88493600D01*
X190543542Y-88493600D01*
X190659657Y-88522628D01*
X190717714Y-88551657D01*
X190746742Y-88580685D01*
X190775771Y-88638742D01*
X190775771Y-88696800D01*
X190746742Y-88754857D01*
X190717714Y-88783885D01*
X190659657Y-88812914D01*
X190543542Y-88841942D01*
X190398400Y-88841942D01*
X190282285Y-88812914D01*
X190224228Y-88783885D01*
X190195200Y-88754857D01*
X190166171Y-88696800D01*
X190166171Y-88116228D02*
X190166171Y-88058171D01*
X190195200Y-88000114D01*
X190224228Y-87971085D01*
X190282285Y-87942057D01*
X190398400Y-87913028D01*
X190543542Y-87913028D01*
X190659657Y-87942057D01*
X190717714Y-87971085D01*
X190746742Y-88000114D01*
X190775771Y-88058171D01*
X190775771Y-88116228D01*
X190746742Y-88174285D01*
X190717714Y-88203314D01*
X190659657Y-88232342D01*
X190543542Y-88261371D01*
X190398400Y-88261371D01*
X190282285Y-88232342D01*
X190224228Y-88203314D01*
X190195200Y-88174285D01*
X190166171Y-88116228D01*
X190166171Y-87535657D02*
X190166171Y-87477600D01*
X190195200Y-87419542D01*
X190224228Y-87390514D01*
X190282285Y-87361485D01*
X190398400Y-87332457D01*
X190543542Y-87332457D01*
X190659657Y-87361485D01*
X190717714Y-87390514D01*
X190746742Y-87419542D01*
X190775771Y-87477600D01*
X190775771Y-87535657D01*
X190746742Y-87593714D01*
X190717714Y-87622742D01*
X190659657Y-87651771D01*
X190543542Y-87680800D01*
X190398400Y-87680800D01*
X190282285Y-87651771D01*
X190224228Y-87622742D01*
X190195200Y-87593714D01*
X190166171Y-87535657D01*
X190166171Y-87158285D02*
X190775771Y-86955085D01*
X190166171Y-86751885D01*
X190543542Y-86548685D02*
X190543542Y-86084228D01*
X190775771Y-85474628D02*
X190775771Y-85822971D01*
X190775771Y-85648800D02*
X190166171Y-85648800D01*
X190253257Y-85706857D01*
X190311314Y-85764914D01*
X190340342Y-85822971D01*
X190543542Y-85213371D02*
X190543542Y-84748914D01*
X190775771Y-84487657D02*
X190166171Y-84023200D01*
X190166171Y-84400571D02*
X190195200Y-84342514D01*
X190253257Y-84313485D01*
X190311314Y-84342514D01*
X190340342Y-84400571D01*
X190311314Y-84458628D01*
X190253257Y-84487657D01*
X190195200Y-84458628D01*
X190166171Y-84400571D01*
X190746742Y-84052228D02*
X190688685Y-84023200D01*
X190630628Y-84052228D01*
X190601600Y-84110285D01*
X190630628Y-84168342D01*
X190688685Y-84197371D01*
X190746742Y-84168342D01*
X190775771Y-84110285D01*
X190746742Y-84052228D01*
%TD*%
M02*
