M48
; DRILL file {KiCad 5.1.9-73d0e3b20d~88~ubuntu20.04.1} date Tue Feb 23 00:09:40 2021
; FORMAT={-:-/ absolute / inch / decimal}
; #@! TF.CreationDate,2021-02-23T00:09:40-07:00
; #@! TF.GenerationSoftware,Kicad,Pcbnew,5.1.9-73d0e3b20d~88~ubuntu20.04.1
; #@! TF.FileFunction,Plated,1,2,PTH
FMAT,2
INCH
T1C0.0275
T2C0.0314
T3C0.0315
T4C0.0320
T5C0.0354
T6C0.0394
T7C0.0400
%
G90
G05
T1
X5.45Y-3.4
X5.65Y-3.4
X5.95Y-3.35
X5.95Y-3.45
X6.2Y-3.35
X6.2Y-3.45
T2
X6.95Y-3.4
X7.05Y-3.4
X7.15Y-3.4
T3
X3.85Y-4.05
X4.25Y-4.05
X4.6Y-4.3
X4.6Y-4.7
X4.8Y-3.4
X4.95Y-4.3
X4.95Y-4.7
X5.2Y-3.4
X5.3Y-4.3
X5.3Y-4.7
X5.65Y-4.3
X5.65Y-4.7
X6.0Y-4.3
X6.0Y-4.7
X6.35Y-4.3
X6.35Y-4.7
X6.7Y-4.3
X6.7Y-4.7
X7.05Y-4.3
X7.05Y-4.7
X7.4Y-4.3
X7.4Y-4.7
X7.75Y-4.05
X8.15Y-4.05
T4
X4.6Y-4.0
X4.6Y-4.1
X4.95Y-3.55
X4.95Y-3.85
X4.95Y-4.0
X4.95Y-4.1
X5.05Y-3.55
X5.05Y-3.85
X5.15Y-3.55
X5.15Y-3.85
X5.25Y-3.55
X5.25Y-3.85
X5.3Y-4.0
X5.3Y-4.1
X5.35Y-3.55
X5.35Y-3.85
X5.45Y-3.55
X5.45Y-3.85
X5.55Y-3.55
X5.55Y-3.85
X5.65Y-3.55
X5.65Y-3.85
X5.65Y-4.0
X5.65Y-4.1
X5.75Y-3.55
X5.75Y-3.85
X5.85Y-3.55
X5.85Y-3.85
X5.95Y-3.55
X5.95Y-3.85
X6.0Y-4.0
X6.0Y-4.1
X6.05Y-3.55
X6.05Y-3.85
X6.15Y-3.55
X6.15Y-3.85
X6.25Y-3.55
X6.25Y-3.85
X6.35Y-4.0
X6.35Y-4.1
X6.7Y-4.0
X6.7Y-4.1
X7.05Y-4.0
X7.05Y-4.1
X7.4Y-4.0
X7.4Y-4.1
T5
X6.6Y-3.4032
X6.6Y-3.7968
X7.45Y-3.4032
X7.45Y-3.7968
T6
X7.0Y-3.8
X7.1Y-3.8
T7
X3.411Y-3.922
X3.411Y-4.178
X3.589Y-3.922
X3.589Y-4.178
X4.611Y-3.572
X4.611Y-3.828
X4.789Y-3.572
X4.789Y-3.828
X8.411Y-3.922
X8.411Y-4.178
X8.589Y-3.922
X8.589Y-4.178
T0
M30
