%TF.GenerationSoftware,KiCad,Pcbnew,5.1.9-73d0e3b20d~88~ubuntu20.04.1*%
%TF.CreationDate,2021-02-23T00:09:44-07:00*%
%TF.ProjectId,tow,746f772e-6b69-4636-9164-5f7063625858,rev?*%
%TF.SameCoordinates,Original*%
%TF.FileFunction,Copper,L2,Bot*%
%TF.FilePolarity,Positive*%
%FSLAX46Y46*%
G04 Gerber Fmt 4.6, Leading zero omitted, Abs format (unit mm)*
G04 Created by KiCad (PCBNEW 5.1.9-73d0e3b20d~88~ubuntu20.04.1) date 2021-02-23 00:09:44*
%MOMM*%
%LPD*%
G01*
G04 APERTURE LIST*
%TA.AperFunction,Profile*%
%ADD10C,0.050000*%
%TD*%
%TA.AperFunction,ComponentPad*%
%ADD11O,1.700000X1.700000*%
%TD*%
%TA.AperFunction,ComponentPad*%
%ADD12R,1.700000X1.700000*%
%TD*%
%TA.AperFunction,ComponentPad*%
%ADD13C,1.651000*%
%TD*%
%TA.AperFunction,ComponentPad*%
%ADD14C,1.625600*%
%TD*%
%TA.AperFunction,ComponentPad*%
%ADD15C,1.305560*%
%TD*%
%TA.AperFunction,ComponentPad*%
%ADD16C,1.879600*%
%TD*%
%TA.AperFunction,ComponentPad*%
%ADD17O,1.600000X1.600000*%
%TD*%
%TA.AperFunction,ComponentPad*%
%ADD18C,1.600000*%
%TD*%
%TA.AperFunction,Conductor*%
%ADD19C,0.250000*%
%TD*%
G04 APERTURE END LIST*
D10*
X72390000Y-82550000D02*
X232410000Y-82550000D01*
X72390000Y-123190000D02*
X72390000Y-82550000D01*
X232410000Y-123190000D02*
X72390000Y-123190000D01*
X232410000Y-82550000D02*
X232410000Y-123190000D01*
D11*
%TO.P,J1,2*%
%TO.N,GNDREF*%
X177800000Y-96520000D03*
D12*
%TO.P,J1,1*%
%TO.N,+9V*%
X180340000Y-96520000D03*
%TD*%
D13*
%TO.P,Y1,2*%
%TO.N,Net-(C2-Pad1)*%
X138430000Y-86360000D03*
%TO.P,Y1,1*%
%TO.N,Net-(C3-Pad1)*%
X143510000Y-86360000D03*
%TD*%
D14*
%TO.P,U2,28*%
%TO.N,Net-(C4-Pad1)*%
X125730000Y-90170000D03*
%TO.P,U2,27*%
X128270000Y-90170000D03*
%TO.P,U2,26*%
X130810000Y-90170000D03*
%TO.P,U2,25*%
X133350000Y-90170000D03*
%TO.P,U2,24*%
X135890000Y-90170000D03*
%TO.P,U2,23*%
%TO.N,Net-(D1-PadA)*%
X138430000Y-90170000D03*
%TO.P,U2,22*%
%TO.N,GNDREF*%
X140970000Y-90170000D03*
%TO.P,U2,21*%
%TO.N,Net-(C4-Pad1)*%
X143510000Y-90170000D03*
%TO.P,U2,20*%
X146050000Y-90170000D03*
%TO.P,U2,19*%
X148590000Y-90170000D03*
%TO.P,U2,18*%
X151130000Y-90170000D03*
%TO.P,U2,17*%
X153670000Y-90170000D03*
%TO.P,U2,16*%
X156210000Y-90170000D03*
%TO.P,U2,15*%
%TO.N,Net-(S3-Pad3)*%
X158750000Y-90170000D03*
%TO.P,U2,14*%
%TO.N,Net-(S2-Pad3)*%
X158750000Y-97790000D03*
%TO.P,U2,13*%
%TO.N,Net-(D9-PadA)*%
X156210000Y-97790000D03*
%TO.P,U2,12*%
%TO.N,Net-(D5-PadA)*%
X153670000Y-97790000D03*
%TO.P,U2,11*%
%TO.N,Net-(D8-PadA)*%
X151130000Y-97790000D03*
%TO.P,U2,10*%
%TO.N,Net-(C3-Pad1)*%
X148590000Y-97790000D03*
%TO.P,U2,9*%
%TO.N,Net-(C2-Pad1)*%
X146050000Y-97790000D03*
%TO.P,U2,8*%
%TO.N,GNDREF*%
X143510000Y-97790000D03*
%TO.P,U2,7*%
%TO.N,Net-(C4-Pad1)*%
X140970000Y-97790000D03*
%TO.P,U2,6*%
%TO.N,Net-(D4-PadA)*%
X138430000Y-97790000D03*
%TO.P,U2,5*%
%TO.N,Net-(D7-PadA)*%
X135890000Y-97790000D03*
%TO.P,U2,4*%
%TO.N,Net-(D3-PadA)*%
X133350000Y-97790000D03*
%TO.P,U2,3*%
%TO.N,Net-(D6-PadA)*%
X130810000Y-97790000D03*
%TO.P,U2,2*%
%TO.N,Net-(D2-PadA)*%
X128270000Y-97790000D03*
%TO.P,U2,1*%
%TO.N,Net-(R1-Pad1)*%
X125730000Y-97790000D03*
%TD*%
D15*
%TO.P,U1,VOUT*%
%TO.N,Net-(C4-Pad1)*%
X176530000Y-86360000D03*
%TO.P,U1,VIN*%
%TO.N,+9V*%
X181610000Y-86360000D03*
%TO.P,U1,GND*%
%TO.N,GNDREF*%
X179070000Y-86360000D03*
%TD*%
D16*
%TO.P,S3,4*%
%TO.N,N/C*%
X86639400Y-106121200D03*
%TO.P,S3,3*%
%TO.N,Net-(S3-Pad3)*%
X86639400Y-99618800D03*
%TO.P,S3,2*%
%TO.N,N/C*%
X91160600Y-106121200D03*
%TO.P,S3,1*%
%TO.N,Net-(R4-Pad1)*%
X91160600Y-99618800D03*
%TD*%
%TO.P,S2,4*%
%TO.N,N/C*%
X218160600Y-99618800D03*
%TO.P,S2,3*%
%TO.N,Net-(S2-Pad3)*%
X218160600Y-106121200D03*
%TO.P,S2,2*%
%TO.N,N/C*%
X213639400Y-99618800D03*
%TO.P,S2,1*%
%TO.N,Net-(R3-Pad1)*%
X213639400Y-106121200D03*
%TD*%
%TO.P,S1,4*%
%TO.N,N/C*%
X117119400Y-97231200D03*
%TO.P,S1,3*%
%TO.N,GNDREF*%
X117119400Y-90728800D03*
%TO.P,S1,2*%
%TO.N,N/C*%
X121640600Y-97231200D03*
%TO.P,S1,1*%
%TO.N,Net-(R1-Pad1)*%
X121640600Y-90728800D03*
%TD*%
D17*
%TO.P,R12,2*%
%TO.N,Net-(D9-PadK)*%
X187960000Y-109220000D03*
D18*
%TO.P,R12,1*%
%TO.N,GNDREF*%
X187960000Y-119380000D03*
%TD*%
D17*
%TO.P,R11,2*%
%TO.N,Net-(D8-PadK)*%
X170180000Y-109220000D03*
D18*
%TO.P,R11,1*%
%TO.N,GNDREF*%
X170180000Y-119380000D03*
%TD*%
D17*
%TO.P,R10,2*%
%TO.N,Net-(D7-PadK)*%
X143510000Y-109220000D03*
D18*
%TO.P,R10,1*%
%TO.N,GNDREF*%
X143510000Y-119380000D03*
%TD*%
D17*
%TO.P,R9,2*%
%TO.N,Net-(D6-PadK)*%
X125730000Y-109220000D03*
D18*
%TO.P,R9,1*%
%TO.N,GNDREF*%
X125730000Y-119380000D03*
%TD*%
D17*
%TO.P,R8,2*%
%TO.N,Net-(D5-PadK)*%
X179070000Y-109220000D03*
D18*
%TO.P,R8,1*%
%TO.N,GNDREF*%
X179070000Y-119380000D03*
%TD*%
D17*
%TO.P,R7,2*%
%TO.N,Net-(D4-PadK)*%
X161290000Y-109220000D03*
D18*
%TO.P,R7,1*%
%TO.N,GNDREF*%
X161290000Y-119380000D03*
%TD*%
D17*
%TO.P,R6,2*%
%TO.N,Net-(D3-PadK)*%
X134620000Y-109220000D03*
D18*
%TO.P,R6,1*%
%TO.N,GNDREF*%
X134620000Y-119380000D03*
%TD*%
D17*
%TO.P,R5,2*%
%TO.N,Net-(D2-PadK)*%
X116840000Y-109220000D03*
D18*
%TO.P,R5,1*%
%TO.N,GNDREF*%
X116840000Y-119380000D03*
%TD*%
D17*
%TO.P,R4,2*%
%TO.N,GNDREF*%
X107950000Y-102870000D03*
D18*
%TO.P,R4,1*%
%TO.N,Net-(R4-Pad1)*%
X97790000Y-102870000D03*
%TD*%
D17*
%TO.P,R3,2*%
%TO.N,GNDREF*%
X196850000Y-102870000D03*
D18*
%TO.P,R3,1*%
%TO.N,Net-(R3-Pad1)*%
X207010000Y-102870000D03*
%TD*%
D17*
%TO.P,R2,2*%
%TO.N,Net-(D1-PadK)*%
X152400000Y-109220000D03*
D18*
%TO.P,R2,1*%
%TO.N,GNDREF*%
X152400000Y-119380000D03*
%TD*%
D17*
%TO.P,R1,2*%
%TO.N,Net-(C4-Pad1)*%
X132080000Y-86360000D03*
D18*
%TO.P,R1,1*%
%TO.N,Net-(R1-Pad1)*%
X121920000Y-86360000D03*
%TD*%
D16*
%TO.P,D9,K*%
%TO.N,Net-(D9-PadK)*%
X187960000Y-104140000D03*
%TO.P,D9,A*%
%TO.N,Net-(D9-PadA)*%
X187960000Y-101600000D03*
%TD*%
%TO.P,D8,K*%
%TO.N,Net-(D8-PadK)*%
X170180000Y-104140000D03*
%TO.P,D8,A*%
%TO.N,Net-(D8-PadA)*%
X170180000Y-101600000D03*
%TD*%
%TO.P,D7,K*%
%TO.N,Net-(D7-PadK)*%
X143510000Y-104140000D03*
%TO.P,D7,A*%
%TO.N,Net-(D7-PadA)*%
X143510000Y-101600000D03*
%TD*%
%TO.P,D6,K*%
%TO.N,Net-(D6-PadK)*%
X125730000Y-104140000D03*
%TO.P,D6,A*%
%TO.N,Net-(D6-PadA)*%
X125730000Y-101600000D03*
%TD*%
%TO.P,D5,K*%
%TO.N,Net-(D5-PadK)*%
X179070000Y-104140000D03*
%TO.P,D5,A*%
%TO.N,Net-(D5-PadA)*%
X179070000Y-101600000D03*
%TD*%
%TO.P,D4,K*%
%TO.N,Net-(D4-PadK)*%
X161290000Y-104140000D03*
%TO.P,D4,A*%
%TO.N,Net-(D4-PadA)*%
X161290000Y-101600000D03*
%TD*%
%TO.P,D3,K*%
%TO.N,Net-(D3-PadK)*%
X134620000Y-104140000D03*
%TO.P,D3,A*%
%TO.N,Net-(D3-PadA)*%
X134620000Y-101600000D03*
%TD*%
%TO.P,D2,K*%
%TO.N,Net-(D2-PadK)*%
X116840000Y-104140000D03*
%TO.P,D2,A*%
%TO.N,Net-(D2-PadA)*%
X116840000Y-101600000D03*
%TD*%
%TO.P,D1,K*%
%TO.N,Net-(D1-PadK)*%
X152400000Y-104140000D03*
%TO.P,D1,A*%
%TO.N,Net-(D1-PadA)*%
X152400000Y-101600000D03*
%TD*%
D13*
%TO.P,C4,2*%
%TO.N,GNDREF*%
X167640000Y-86441280D03*
%TO.P,C4,1*%
%TO.N,Net-(C4-Pad1)*%
X167640000Y-96438720D03*
%TD*%
%TO.P,C3,2*%
%TO.N,GNDREF*%
X157480000Y-87630000D03*
%TO.P,C3,1*%
%TO.N,Net-(C3-Pad1)*%
X157480000Y-85090000D03*
%TD*%
%TO.P,C2,2*%
%TO.N,GNDREF*%
X151130000Y-87630000D03*
%TO.P,C2,1*%
%TO.N,Net-(C2-Pad1)*%
X151130000Y-85090000D03*
%TD*%
%TO.P,C1,2*%
%TO.N,GNDREF*%
X189230000Y-86441280D03*
%TO.P,C1,1*%
%TO.N,+9V*%
X189230000Y-96438720D03*
%TD*%
D19*
%TO.N,GNDREF*%
X142822209Y-97102209D02*
X143510000Y-97790000D01*
X142822209Y-92022209D02*
X142822209Y-97102209D01*
X140970000Y-90170000D02*
X142822209Y-92022209D01*
X151130000Y-87630000D02*
X157480000Y-87630000D01*
X142107801Y-91307801D02*
X140970000Y-90170000D01*
X159887801Y-90716145D02*
X159296145Y-91307801D01*
X159296145Y-91307801D02*
X142107801Y-91307801D01*
X159887801Y-88870368D02*
X159887801Y-90716145D01*
X158647433Y-87630000D02*
X159887801Y-88870368D01*
X157480000Y-87630000D02*
X158647433Y-87630000D01*
%TO.N,Net-(D1-PadA)*%
X145636054Y-101600000D02*
X152400000Y-101600000D01*
X142372199Y-98336145D02*
X145636054Y-101600000D01*
X142372199Y-94112199D02*
X142372199Y-98336145D01*
X138430000Y-90170000D02*
X142372199Y-94112199D01*
%TO.N,Net-(S2-Pad3)*%
X180444095Y-107386001D02*
X216895799Y-107386001D01*
X216895799Y-107386001D02*
X218160600Y-106121200D01*
X170848094Y-97790000D02*
X180444095Y-107386001D01*
X158750000Y-97790000D02*
X170848094Y-97790000D01*
%TO.N,Net-(S3-Pad3)*%
X157612199Y-89032199D02*
X97226001Y-89032199D01*
X97226001Y-89032199D02*
X86639400Y-99618800D01*
X158750000Y-90170000D02*
X157612199Y-89032199D01*
%TD*%
M02*
