%TF.GenerationSoftware,KiCad,Pcbnew,5.1.9-73d0e3b20d~88~ubuntu20.04.1*%
%TF.CreationDate,2021-02-23T00:09:44-07:00*%
%TF.ProjectId,tow,746f772e-6b69-4636-9164-5f7063625858,rev?*%
%TF.SameCoordinates,Original*%
%TF.FileFunction,Soldermask,Top*%
%TF.FilePolarity,Negative*%
%FSLAX46Y46*%
G04 Gerber Fmt 4.6, Leading zero omitted, Abs format (unit mm)*
G04 Created by KiCad (PCBNEW 5.1.9-73d0e3b20d~88~ubuntu20.04.1) date 2021-02-23 00:09:44*
%MOMM*%
%LPD*%
G01*
G04 APERTURE LIST*
%TA.AperFunction,Profile*%
%ADD10C,0.050000*%
%TD*%
%ADD11O,1.700000X1.700000*%
%ADD12R,1.700000X1.700000*%
%ADD13C,1.854200*%
%ADD14C,1.828800*%
%ADD15C,1.508760*%
%ADD16C,2.082800*%
%ADD17O,1.600000X1.600000*%
%ADD18C,1.600000*%
G04 APERTURE END LIST*
D10*
X72390000Y-82550000D02*
X232410000Y-82550000D01*
X72390000Y-123190000D02*
X72390000Y-82550000D01*
X232410000Y-123190000D02*
X72390000Y-123190000D01*
X232410000Y-82550000D02*
X232410000Y-123190000D01*
D11*
%TO.C,J1*%
X177800000Y-96520000D03*
D12*
X180340000Y-96520000D03*
%TD*%
D13*
%TO.C,Y1*%
X138430000Y-86360000D03*
X143510000Y-86360000D03*
%TD*%
D14*
%TO.C,U2*%
X125730000Y-90170000D03*
X128270000Y-90170000D03*
X130810000Y-90170000D03*
X133350000Y-90170000D03*
X135890000Y-90170000D03*
X138430000Y-90170000D03*
X140970000Y-90170000D03*
X143510000Y-90170000D03*
X146050000Y-90170000D03*
X148590000Y-90170000D03*
X151130000Y-90170000D03*
X153670000Y-90170000D03*
X156210000Y-90170000D03*
X158750000Y-90170000D03*
X158750000Y-97790000D03*
X156210000Y-97790000D03*
X153670000Y-97790000D03*
X151130000Y-97790000D03*
X148590000Y-97790000D03*
X146050000Y-97790000D03*
X143510000Y-97790000D03*
X140970000Y-97790000D03*
X138430000Y-97790000D03*
X135890000Y-97790000D03*
X133350000Y-97790000D03*
X130810000Y-97790000D03*
X128270000Y-97790000D03*
X125730000Y-97790000D03*
%TD*%
D15*
%TO.C,U1*%
X176530000Y-86360000D03*
X181610000Y-86360000D03*
X179070000Y-86360000D03*
%TD*%
D16*
%TO.C,S3*%
X86639400Y-106121200D03*
X86639400Y-99618800D03*
X91160600Y-106121200D03*
X91160600Y-99618800D03*
%TD*%
%TO.C,S2*%
X218160600Y-99618800D03*
X218160600Y-106121200D03*
X213639400Y-99618800D03*
X213639400Y-106121200D03*
%TD*%
%TO.C,S1*%
X117119400Y-97231200D03*
X117119400Y-90728800D03*
X121640600Y-97231200D03*
X121640600Y-90728800D03*
%TD*%
D17*
%TO.C,R12*%
X187960000Y-109220000D03*
D18*
X187960000Y-119380000D03*
%TD*%
D17*
%TO.C,R11*%
X170180000Y-109220000D03*
D18*
X170180000Y-119380000D03*
%TD*%
D17*
%TO.C,R10*%
X143510000Y-109220000D03*
D18*
X143510000Y-119380000D03*
%TD*%
D17*
%TO.C,R9*%
X125730000Y-109220000D03*
D18*
X125730000Y-119380000D03*
%TD*%
D17*
%TO.C,R8*%
X179070000Y-109220000D03*
D18*
X179070000Y-119380000D03*
%TD*%
D17*
%TO.C,R7*%
X161290000Y-109220000D03*
D18*
X161290000Y-119380000D03*
%TD*%
D17*
%TO.C,R6*%
X134620000Y-109220000D03*
D18*
X134620000Y-119380000D03*
%TD*%
D17*
%TO.C,R5*%
X116840000Y-109220000D03*
D18*
X116840000Y-119380000D03*
%TD*%
D17*
%TO.C,R4*%
X107950000Y-102870000D03*
D18*
X97790000Y-102870000D03*
%TD*%
D17*
%TO.C,R3*%
X196850000Y-102870000D03*
D18*
X207010000Y-102870000D03*
%TD*%
D17*
%TO.C,R2*%
X152400000Y-109220000D03*
D18*
X152400000Y-119380000D03*
%TD*%
D17*
%TO.C,R1*%
X132080000Y-86360000D03*
D18*
X121920000Y-86360000D03*
%TD*%
D16*
%TO.C,D9*%
X187960000Y-104140000D03*
X187960000Y-101600000D03*
%TD*%
%TO.C,D8*%
X170180000Y-104140000D03*
X170180000Y-101600000D03*
%TD*%
%TO.C,D7*%
X143510000Y-104140000D03*
X143510000Y-101600000D03*
%TD*%
%TO.C,D6*%
X125730000Y-104140000D03*
X125730000Y-101600000D03*
%TD*%
%TO.C,D5*%
X179070000Y-104140000D03*
X179070000Y-101600000D03*
%TD*%
%TO.C,D4*%
X161290000Y-104140000D03*
X161290000Y-101600000D03*
%TD*%
%TO.C,D3*%
X134620000Y-104140000D03*
X134620000Y-101600000D03*
%TD*%
%TO.C,D2*%
X116840000Y-104140000D03*
X116840000Y-101600000D03*
%TD*%
%TO.C,D1*%
X152400000Y-104140000D03*
X152400000Y-101600000D03*
%TD*%
D13*
%TO.C,C4*%
X167640000Y-86441280D03*
X167640000Y-96438720D03*
%TD*%
%TO.C,C3*%
X157480000Y-87630000D03*
X157480000Y-85090000D03*
%TD*%
%TO.C,C2*%
X151130000Y-87630000D03*
X151130000Y-85090000D03*
%TD*%
%TO.C,C1*%
X189230000Y-86441280D03*
X189230000Y-96438720D03*
%TD*%
M02*
